solid Mesh
  facet normal 0.92388 0 -0.382683
    outer loop
      vertex 39.2729 -167.313 94.8131
      vertex 54.3862 -167.313 131.3
      vertex 39.2729 -177.475 94.8131
    endloop
  endfacet
  facet normal 0.92388 0 -0.382683
    outer loop
      vertex 54.3862 -167.313 131.3
      vertex 54.3862 -177.475 131.3
      vertex 39.2729 -177.475 94.8131
    endloop
  endfacet
  facet normal 0.972295 0 0.233756
    outer loop
      vertex 31.8997 -167.313 -132.685
      vertex 23.9892 -167.313 -99.7818
      vertex 31.8997 -177.475 -132.685
    endloop
  endfacet
  facet normal 0.972295 0 0.233756
    outer loop
      vertex 23.9892 -167.313 -99.7818
      vertex 23.9892 -177.475 -99.7818
      vertex 31.8997 -177.475 -132.685
    endloop
  endfacet
  facet normal 0 0 1
    outer loop
      vertex -53.0012 -177.475 132.685
      vertex 53.0012 -177.475 132.685
      vertex -53.0012 -167.313 132.685
    endloop
  endfacet
  facet normal 0 0 1
    outer loop
      vertex 53.0012 -177.475 132.685
      vertex 53.0012 -167.313 132.685
      vertex -53.0012 -167.313 132.685
    endloop
  endfacet
  facet normal 0 -1 0
    outer loop
      vertex -42.8452 -177.475 93.2533
      vertex -38.765 -177.475 95.0219
      vertex -53.0012 -177.475 132.685
    endloop
  endfacet
  facet normal 0 -1 0
    outer loop
      vertex -53.0012 -177.475 132.685
      vertex -68.7456 -177.475 76.1966
      vertex -65.3801 -177.475 79.1033
    endloop
  endfacet
  facet normal 0 -1 0
    outer loop
      vertex -65.3801 -177.475 79.1033
      vertex -61.8917 -177.475 81.8615
      vertex -53.0012 -177.475 132.685
    endloop
  endfacet
  facet normal 0 -1 0
    outer loop
      vertex -61.8917 -177.475 81.8615
      vertex -58.2872 -177.475 84.4659
      vertex -53.0012 -177.475 132.685
    endloop
  endfacet
  facet normal 0 -1 0
    outer loop
      vertex -53.0012 -177.475 132.685
      vertex -58.2872 -177.475 84.4659
      vertex -54.5732 -177.475 86.9118
    endloop
  endfacet
  facet normal 0 -1 0
    outer loop
      vertex -54.5732 -177.475 86.9118
      vertex -50.7567 -177.475 89.1944
      vertex -53.0012 -177.475 132.685
    endloop
  endfacet
  facet normal 0 -1 0
    outer loop
      vertex -50.7567 -177.475 89.1944
      vertex -46.845 -177.475 91.3096
      vertex -53.0012 -177.475 132.685
    endloop
  endfacet
  facet normal 0 -1 0
    outer loop
      vertex -53.0012 -177.475 132.685
      vertex -46.845 -177.475 91.3096
      vertex -42.8452 -177.475 93.2533
    endloop
  endfacet
  facet normal 0 -1 0
    outer loop
      vertex -26.1191 -177.475 99.2456
      vertex -21.795 -177.475 100.284
      vertex -53.0012 -177.475 132.685
    endloop
  endfacet
  facet normal 0 -1 0
    outer loop
      vertex -21.795 -177.475 100.284
      vertex -17.43 -177.475 101.134
      vertex -53.0012 -177.475 132.685
    endloop
  endfacet
  facet normal 0 -1 0
    outer loop
      vertex -53.0012 -177.475 132.685
      vertex -17.43 -177.475 101.134
      vertex -13.0322 -177.475 101.794
    endloop
  endfacet
  facet normal 0 -1 0
    outer loop
      vertex 39.2729 -177.475 94.8131
      vertex 54.3862 -177.475 131.3
      vertex 35.1285 -177.475 96.4255
    endloop
  endfacet
  facet normal 0 -1 0
    outer loop
      vertex 54.3862 -177.475 131.3
      vertex 53.0012 -177.475 132.685
      vertex 35.1285 -177.475 96.4255
    endloop
  endfacet
  facet normal 0 -1 0
    outer loop
      vertex 35.1285 -177.475 96.4255
      vertex 53.0012 -177.475 132.685
      vertex 30.9181 -177.475 97.8568
    endloop
  endfacet
  facet normal 0 -1 0
    outer loop
      vertex 53.0012 -177.475 132.685
      vertex 26.6497 -177.475 99.1044
      vertex 30.9181 -177.475 97.8568
    endloop
  endfacet
  facet normal 0 -1 0
    outer loop
      vertex 31.8997 -177.475 -132.685
      vertex 23.9892 -177.475 -99.7818
      vertex 19.6439 -177.475 -100.727
    endloop
  endfacet
  facet normal 0 -1 0
    outer loop
      vertex -38.765 -177.475 95.0219
      vertex -34.6121 -177.475 96.6121
      vertex -53.0012 -177.475 132.685
    endloop
  endfacet
  facet normal 0 -1 0
    outer loop
      vertex -34.6121 -177.475 96.6121
      vertex -30.3941 -177.475 98.0209
      vertex -53.0012 -177.475 132.685
    endloop
  endfacet
  facet normal 0 -1 0
    outer loop
      vertex -53.0012 -177.475 132.685
      vertex -30.3941 -177.475 98.0209
      vertex -26.1191 -177.475 99.2456
    endloop
  endfacet
  facet normal 0 -1 0
    outer loop
      vertex -37.184 -177.475 -95.6517
      vertex -41.2929 -177.475 -93.951
      vertex -53.0012 -177.475 -132.685
    endloop
  endfacet
  facet normal 0 -1 0
    outer loop
      vertex 4.72023 -177.475 102.516
      vertex 9.15706 -177.475 102.216
      vertex 53.0012 -177.475 132.685
    endloop
  endfacet
  facet normal 0 -1 0
    outer loop
      vertex 9.15706 -177.475 102.216
      vertex 13.5767 -177.475 101.723
      vertex 53.0012 -177.475 132.685
    endloop
  endfacet
  facet normal 0 -1 0
    outer loop
      vertex -85.0848 -177.475 -57.38
      vertex -87.4908 -177.475 -53.6401
      vertex -132.685 -177.475 -53.0012
    endloop
  endfacet
  facet normal 0 -1 0
    outer loop
      vertex -87.4908 -177.475 -53.6401
      vertex -89.7324 -177.475 -49.7994
      vertex -132.685 -177.475 -53.0012
    endloop
  endfacet
  facet normal 0 -1 0
    outer loop
      vertex 13.5767 -177.475 101.723
      vertex 17.9708 -177.475 101.039
      vertex 53.0012 -177.475 132.685
    endloop
  endfacet
  facet normal 0 -1 0
    outer loop
      vertex 17.9708 -177.475 101.039
      vertex 22.3312 -177.475 100.166
      vertex 53.0012 -177.475 132.685
    endloop
  endfacet
  facet normal 0 -1 0
    outer loop
      vertex 53.0012 -177.475 132.685
      vertex 22.3312 -177.475 100.166
      vertex 26.6497 -177.475 99.1044
    endloop
  endfacet
  facet normal 0 -1 0
    outer loop
      vertex -41.2929 -177.475 -93.951
      vertex -45.3243 -177.475 -92.0739
      vertex -53.0012 -177.475 -132.685
    endloop
  endfacet
  facet normal 0 -1 0
    outer loop
      vertex -45.3243 -177.475 -92.0739
      vertex -49.2706 -177.475 -90.0239
      vertex -53.0012 -177.475 -132.685
    endloop
  endfacet
  facet normal 0 -1 0
    outer loop
      vertex -53.0012 -177.475 -132.685
      vertex -49.2706 -177.475 -90.0239
      vertex -53.1244 -177.475 -87.8048
    endloop
  endfacet
  facet normal 0 -1 0
    outer loop
      vertex -53.1244 -177.475 -87.8048
      vertex -56.8785 -177.475 -85.4209
      vertex -53.0012 -177.475 -132.685
    endloop
  endfacet
  facet normal 0 -1 0
    outer loop
      vertex -56.8785 -177.475 -85.4209
      vertex -60.5257 -177.475 -82.8766
      vertex -53.0012 -177.475 -132.685
    endloop
  endfacet
  facet normal 0 -1 0
    outer loop
      vertex -53.0012 -177.475 -132.685
      vertex -60.5257 -177.475 -82.8766
      vertex -64.0593 -177.475 -80.1767
    endloop
  endfacet
  facet normal 0 -1 0
    outer loop
      vertex -76.9279 -177.475 -67.9263
      vertex -79.7984 -177.475 -64.5299
      vertex -132.685 -177.475 -53.0012
    endloop
  endfacet
  facet normal 0 -1 0
    outer loop
      vertex -79.7984 -177.475 -64.5299
      vertex -82.5191 -177.475 -61.0122
      vertex -132.685 -177.475 -53.0012
    endloop
  endfacet
  facet normal 0 -1 0
    outer loop
      vertex -132.685 -177.475 -53.0012
      vertex -82.5191 -177.475 -61.0122
      vertex -85.0848 -177.475 -57.38
    endloop
  endfacet
  facet normal 0 -1 0
    outer loop
      vertex -99.5194 -177.475 -25.0556
      vertex -100.511 -177.475 -20.7206
      vertex -132.685 -177.475 -53.0012
    endloop
  endfacet
  facet normal 0 -1 0
    outer loop
      vertex -100.511 -177.475 -20.7206
      vertex -101.315 -177.475 -16.3468
      vertex -132.685 -177.475 -53.0012
    endloop
  endfacet
  facet normal 0 -1 0
    outer loop
      vertex -132.685 -177.475 -53.0012
      vertex -101.315 -177.475 -16.3468
      vertex -101.928 -177.475 -11.9422
    endloop
  endfacet
  facet normal 0 -1 0
    outer loop
      vertex -102.46 -177.475 5.81696
      vertex -102.112 -177.475 10.2503
      vertex -132.685 -177.475 53.0012
    endloop
  endfacet
  facet normal 0 -1 0
    outer loop
      vertex -102.112 -177.475 10.2503
      vertex -101.572 -177.475 14.6644
      vertex -132.685 -177.475 53.0012
    endloop
  endfacet
  facet normal 0 -1 0
    outer loop
      vertex -98.8136 -177.475 27.7086
      vertex -97.5204 -177.475 31.9635
      vertex -132.685 -177.475 53.0012
    endloop
  endfacet
  facet normal 0 -1 0
    outer loop
      vertex -97.5204 -177.475 31.9635
      vertex -96.0441 -177.475 36.1583
      vertex -132.685 -177.475 53.0012
    endloop
  endfacet
  facet normal 0 -1 0
    outer loop
      vertex -132.685 -177.475 53.0012
      vertex -96.0441 -177.475 36.1583
      vertex -94.3875 -177.475 40.2852
    endloop
  endfacet
  facet normal 0 -1 0
    outer loop
      vertex -94.3875 -177.475 40.2852
      vertex -92.5536 -177.475 44.3365
      vertex -132.685 -177.475 53.0012
    endloop
  endfacet
  facet normal 0 -1 0
    outer loop
      vertex -92.5536 -177.475 44.3365
      vertex -90.5459 -177.475 48.3045
      vertex -132.685 -177.475 53.0012
    endloop
  endfacet
  facet normal 0 -1 0
    outer loop
      vertex -132.685 -177.475 53.0012
      vertex -90.5459 -177.475 48.3045
      vertex -88.3683 -177.475 52.1818
    endloop
  endfacet
  facet normal 0 -1 0
    outer loop
      vertex -13.0322 -177.475 101.794
      vertex -8.61003 -177.475 102.263
      vertex -53.0012 -177.475 132.685
    endloop
  endfacet
  facet normal 0 -1 0
    outer loop
      vertex -8.61003 -177.475 102.263
      vertex -4.17166 -177.475 102.54
      vertex -53.0012 -177.475 132.685
    endloop
  endfacet
  facet normal 0 -1 0
    outer loop
      vertex -53.0012 -177.475 132.685
      vertex -4.17166 -177.475 102.54
      vertex 53.0012 -177.475 132.685
    endloop
  endfacet
  facet normal 0 -1 0
    outer loop
      vertex -4.17166 -177.475 102.54
      vertex 0.274544 -177.475 102.625
      vertex 53.0012 -177.475 132.685
    endloop
  endfacet
  facet normal 0 -1 0
    outer loop
      vertex 53.0012 -177.475 132.685
      vertex 0.274544 -177.475 102.625
      vertex 4.72023 -177.475 102.516
    endloop
  endfacet
  facet normal 0 -1 0
    outer loop
      vertex -89.7324 -177.475 -49.7994
      vertex -91.8056 -177.475 -45.8652
      vertex -132.685 -177.475 -53.0012
    endloop
  endfacet
  facet normal 0 -1 0
    outer loop
      vertex -91.8056 -177.475 -45.8652
      vertex -93.7064 -177.475 -41.8449
      vertex -132.685 -177.475 -53.0012
    endloop
  endfacet
  facet normal 0 -1 0
    outer loop
      vertex -132.685 -177.475 -53.0012
      vertex -93.7064 -177.475 -41.8449
      vertex -95.4313 -177.475 -37.746
    endloop
  endfacet
  facet normal 0 -1 0
    outer loop
      vertex -101.572 -177.475 14.6644
      vertex -100.841 -177.475 19.051
      vertex -132.685 -177.475 53.0012
    endloop
  endfacet
  facet normal 0 -1 0
    outer loop
      vertex -100.841 -177.475 19.051
      vertex -99.9212 -177.475 23.4018
      vertex -132.685 -177.475 53.0012
    endloop
  endfacet
  facet normal 0 -1 0
    outer loop
      vertex -132.685 -177.475 53.0012
      vertex -99.9212 -177.475 23.4018
      vertex -98.8136 -177.475 27.7086
    endloop
  endfacet
  facet normal 0 -1 0
    outer loop
      vertex 19.6439 -177.475 -100.727
      vertex 15.2617 -177.475 -101.484
      vertex 31.8997 -177.475 -132.685
    endloop
  endfacet
  facet normal 0 -1 0
    outer loop
      vertex 15.2617 -177.475 -101.484
      vertex 10.8509 -177.475 -102.05
      vertex 31.8997 -177.475 -132.685
    endloop
  endfacet
  facet normal 0 -1 0
    outer loop
      vertex 31.8997 -177.475 -132.685
      vertex 10.8509 -177.475 -102.05
      vertex 6.41962 -177.475 -102.424
    endloop
  endfacet
  facet normal 0 -1 0
    outer loop
      vertex 6.41962 -177.475 -102.424
      vertex 1.97634 -177.475 -102.606
      vertex 31.8997 -177.475 -132.685
    endloop
  endfacet
  facet normal 0 -1 0
    outer loop
      vertex 1.97634 -177.475 -102.606
      vertex -2.47066 -177.475 -102.595
      vertex 31.8997 -177.475 -132.685
    endloop
  endfacet
  facet normal 0 -1 0
    outer loop
      vertex 31.8997 -177.475 -132.685
      vertex -2.47066 -177.475 -102.595
      vertex -53.0012 -177.475 -132.685
    endloop
  endfacet
  facet normal 0 -1 0
    outer loop
      vertex -2.47066 -177.475 -102.595
      vertex -6.91301 -177.475 -102.392
      vertex -53.0012 -177.475 -132.685
    endloop
  endfacet
  facet normal 0 -1 0
    outer loop
      vertex -53.0012 -177.475 -132.685
      vertex -6.91301 -177.475 -102.392
      vertex -11.3424 -177.475 -101.996
    endloop
  endfacet
  facet normal 0 -1 0
    outer loop
      vertex -95.4313 -177.475 -37.746
      vertex -96.9769 -177.475 -33.5763
      vertex -132.685 -177.475 -53.0012
    endloop
  endfacet
  facet normal 0 -1 0
    outer loop
      vertex -96.9769 -177.475 -33.5763
      vertex -98.3405 -177.475 -29.3435
      vertex -132.685 -177.475 -53.0012
    endloop
  endfacet
  facet normal 0 -1 0
    outer loop
      vertex -132.685 -177.475 -53.0012
      vertex -98.3405 -177.475 -29.3435
      vertex -99.5194 -177.475 -25.0556
    endloop
  endfacet
  facet normal 0 -1 0
    outer loop
      vertex -101.928 -177.475 -11.9422
      vertex -102.349 -177.475 -7.51526
      vertex -132.685 -177.475 -53.0012
    endloop
  endfacet
  facet normal 0 -1 0
    outer loop
      vertex -102.349 -177.475 -7.51526
      vertex -102.579 -177.475 -3.07418
      vertex -132.685 -177.475 -53.0012
    endloop
  endfacet
  facet normal 0 -1 0
    outer loop
      vertex -132.685 -177.475 -53.0012
      vertex -102.579 -177.475 -3.07418
      vertex -132.685 -177.475 53.0012
    endloop
  endfacet
  facet normal 0 -1 0
    outer loop
      vertex -102.579 -177.475 -3.07418
      vertex -102.616 -177.475 1.37268
      vertex -132.685 -177.475 53.0012
    endloop
  endfacet
  facet normal 0 -1 0
    outer loop
      vertex -132.685 -177.475 53.0012
      vertex -102.616 -177.475 1.37268
      vertex -102.46 -177.475 5.81696
    endloop
  endfacet
  facet normal 0 -1 0
    outer loop
      vertex -88.3683 -177.475 52.1818
      vertex -86.0246 -177.475 55.9611
      vertex -132.685 -177.475 53.0012
    endloop
  endfacet
  facet normal 0 -1 0
    outer loop
      vertex -86.0246 -177.475 55.9611
      vertex -83.5195 -177.475 59.6354
      vertex -132.685 -177.475 53.0012
    endloop
  endfacet
  facet normal 0 -1 0
    outer loop
      vertex -132.685 -177.475 53.0012
      vertex -83.5195 -177.475 59.6354
      vertex -80.8576 -177.475 63.1977
    endloop
  endfacet
  facet normal 0 -1 0
    outer loop
      vertex -11.3424 -177.475 -101.996
      vertex -15.7505 -177.475 -101.409
      vertex -53.0012 -177.475 -132.685
    endloop
  endfacet
  facet normal 0 -1 0
    outer loop
      vertex -15.7505 -177.475 -101.409
      vertex -20.129 -177.475 -100.632
      vertex -53.0012 -177.475 -132.685
    endloop
  endfacet
  facet normal 0 -1 0
    outer loop
      vertex -53.0012 -177.475 -132.685
      vertex -20.129 -177.475 -100.632
      vertex -24.4697 -177.475 -99.6651
    endloop
  endfacet
  facet normal 0 -1 0
    outer loop
      vertex -80.8576 -177.475 63.1977
      vertex -78.0438 -177.475 66.6413
      vertex -132.685 -177.475 53.0012
    endloop
  endfacet
  facet normal 0 -1 0
    outer loop
      vertex -78.0438 -177.475 66.6413
      vertex -75.0834 -177.475 69.9598
      vertex -132.685 -177.475 53.0012
    endloop
  endfacet
  facet normal 0 -1 0
    outer loop
      vertex -132.685 -177.475 53.0012
      vertex -75.0834 -177.475 69.9598
      vertex -53.0012 -177.475 132.685
    endloop
  endfacet
  facet normal 0 -1 0
    outer loop
      vertex -75.0834 -177.475 69.9598
      vertex -71.9821 -177.475 73.1469
      vertex -53.0012 -177.475 132.685
    endloop
  endfacet
  facet normal 0 -1 0
    outer loop
      vertex -53.0012 -177.475 132.685
      vertex -71.9821 -177.475 73.1469
      vertex -68.7456 -177.475 76.1966
    endloop
  endfacet
  facet normal 0 -1 0
    outer loop
      vertex -24.4697 -177.475 -99.6651
      vertex -28.7644 -177.475 -98.5114
      vertex -53.0012 -177.475 -132.685
    endloop
  endfacet
  facet normal 0 -1 0
    outer loop
      vertex -28.7644 -177.475 -98.5114
      vertex -33.0052 -177.475 -97.1728
      vertex -53.0012 -177.475 -132.685
    endloop
  endfacet
  facet normal 0 -1 0
    outer loop
      vertex -53.0012 -177.475 -132.685
      vertex -33.0052 -177.475 -97.1728
      vertex -37.184 -177.475 -95.6517
    endloop
  endfacet
  facet normal 0 -1 0
    outer loop
      vertex -64.0593 -177.475 -80.1767
      vertex -67.4726 -177.475 -77.3262
      vertex -53.0012 -177.475 -132.685
    endloop
  endfacet
  facet normal 0 -1 0
    outer loop
      vertex -67.4726 -177.475 -77.3262
      vertex -70.7592 -177.475 -74.3305
      vertex -53.0012 -177.475 -132.685
    endloop
  endfacet
  facet normal 0 -1 0
    outer loop
      vertex -53.0012 -177.475 -132.685
      vertex -70.7592 -177.475 -74.3305
      vertex -132.685 -177.475 -53.0012
    endloop
  endfacet
  facet normal 0 -1 0
    outer loop
      vertex -70.7592 -177.475 -74.3305
      vertex -73.913 -177.475 -71.1953
      vertex -132.685 -177.475 -53.0012
    endloop
  endfacet
  facet normal 0 -1 0
    outer loop
      vertex -132.685 -177.475 -53.0012
      vertex -73.913 -177.475 -71.1953
      vertex -76.9279 -177.475 -67.9263
    endloop
  endfacet
  facet normal -0.707107 0 0.707107
    outer loop
      vertex -132.685 -177.475 53.0012
      vertex -53.0012 -177.475 132.685
      vertex -132.685 -167.313 53.0012
    endloop
  endfacet
  facet normal -0.707107 0 0.707107
    outer loop
      vertex -53.0012 -177.475 132.685
      vertex -53.0012 -167.313 132.685
      vertex -132.685 -167.313 53.0012
    endloop
  endfacet
  facet normal -1 0 0
    outer loop
      vertex -132.685 -177.475 -53.0012
      vertex -132.685 -177.475 53.0012
      vertex -132.685 -167.313 -53.0012
    endloop
  endfacet
  facet normal -1 0 0
    outer loop
      vertex -132.685 -177.475 53.0012
      vertex -132.685 -167.313 53.0012
      vertex -132.685 -167.313 -53.0012
    endloop
  endfacet
  facet normal 0.707108 0 0.707106
    outer loop
      vertex 54.3862 -167.313 131.3
      vertex 53.0012 -167.313 132.685
      vertex 54.3862 -177.475 131.3
    endloop
  endfacet
  facet normal 0.707108 0 0.707106
    outer loop
      vertex 53.0012 -167.313 132.685
      vertex 53.0012 -177.475 132.685
      vertex 54.3862 -177.475 131.3
    endloop
  endfacet
  facet normal -0.212635 0 0.977132
    outer loop
      vertex 23.9892 -177.475 -99.7818
      vertex 23.9892 -167.313 -99.7818
      vertex 19.6439 -177.475 -100.727
    endloop
  endfacet
  facet normal -0.212635 0 0.977132
    outer loop
      vertex 23.9892 -167.313 -99.7818
      vertex 19.6439 -167.313 -100.727
      vertex 19.6439 -177.475 -100.727
    endloop
  endfacet
  facet normal -0.170103 0 0.985426
    outer loop
      vertex 19.6439 -177.475 -100.727
      vertex 19.6439 -167.313 -100.727
      vertex 15.2617 -177.475 -101.484
    endloop
  endfacet
  facet normal -0.170103 0 0.985426
    outer loop
      vertex 19.6439 -167.313 -100.727
      vertex 15.2617 -167.313 -101.484
      vertex 15.2617 -177.475 -101.484
    endloop
  endfacet
  facet normal -0.127253 0 0.99187
    outer loop
      vertex 15.2617 -177.475 -101.484
      vertex 15.2617 -167.313 -101.484
      vertex 10.8509 -177.475 -102.05
    endloop
  endfacet
  facet normal -0.127253 0 0.99187
    outer loop
      vertex 15.2617 -167.313 -101.484
      vertex 10.8509 -167.313 -102.05
      vertex 10.8509 -177.475 -102.05
    endloop
  endfacet
  facet normal -0.0841644 0 0.996452
    outer loop
      vertex 10.8509 -177.475 -102.05
      vertex 10.8509 -167.313 -102.05
      vertex 6.41962 -177.475 -102.424
    endloop
  endfacet
  facet normal -0.0841644 0 0.996452
    outer loop
      vertex 10.8509 -167.313 -102.05
      vertex 6.41962 -167.313 -102.424
      vertex 6.41962 -177.475 -102.424
    endloop
  endfacet
  facet normal -0.0409153 0 0.999163
    outer loop
      vertex 6.41962 -177.475 -102.424
      vertex 6.41962 -167.313 -102.424
      vertex 1.97634 -177.475 -102.606
    endloop
  endfacet
  facet normal -0.0409153 0 0.999163
    outer loop
      vertex 6.41962 -167.313 -102.424
      vertex 1.97634 -167.313 -102.606
      vertex 1.97634 -177.475 -102.606
    endloop
  endfacet
  facet normal 0.00240925 0 0.999997
    outer loop
      vertex 1.97634 -177.475 -102.606
      vertex 1.97634 -167.313 -102.606
      vertex -2.47066 -177.475 -102.595
    endloop
  endfacet
  facet normal 0.00240925 0 0.999997
    outer loop
      vertex 1.97634 -167.313 -102.606
      vertex -2.47066 -167.313 -102.595
      vertex -2.47066 -177.475 -102.595
    endloop
  endfacet
  facet normal 0.0457288 0 0.998954
    outer loop
      vertex -2.47066 -177.475 -102.595
      vertex -2.47066 -167.313 -102.595
      vertex -6.91301 -177.475 -102.392
    endloop
  endfacet
  facet normal 0.0457288 0 0.998954
    outer loop
      vertex -2.47066 -167.313 -102.595
      vertex -6.91301 -167.313 -102.392
      vertex -6.91301 -177.475 -102.392
    endloop
  endfacet
  facet normal 0.0889628 0 0.996035
    outer loop
      vertex -6.91301 -177.475 -102.392
      vertex -6.91301 -167.313 -102.392
      vertex -11.3424 -177.475 -101.996
    endloop
  endfacet
  facet normal 0.0889628 0 0.996035
    outer loop
      vertex -6.91301 -167.313 -102.392
      vertex -11.3424 -167.313 -101.996
      vertex -11.3424 -177.475 -101.996
    endloop
  endfacet
  facet normal 0.132031 0 0.991246
    outer loop
      vertex -11.3424 -177.475 -101.996
      vertex -11.3424 -167.313 -101.996
      vertex -15.7505 -177.475 -101.409
    endloop
  endfacet
  facet normal 0.132031 0 0.991246
    outer loop
      vertex -11.3424 -167.313 -101.996
      vertex -15.7505 -167.313 -101.409
      vertex -15.7505 -177.475 -101.409
    endloop
  endfacet
  facet normal 0.17485 0 0.984595
    outer loop
      vertex -15.7505 -177.475 -101.409
      vertex -15.7505 -167.313 -101.409
      vertex -20.129 -177.475 -100.632
    endloop
  endfacet
  facet normal 0.17485 0 0.984595
    outer loop
      vertex -15.7505 -167.313 -101.409
      vertex -20.129 -167.313 -100.632
      vertex -20.129 -177.475 -100.632
    endloop
  endfacet
  facet normal 0.21734 0 0.976096
    outer loop
      vertex -20.129 -177.475 -100.632
      vertex -20.129 -167.313 -100.632
      vertex -24.4697 -177.475 -99.6651
    endloop
  endfacet
  facet normal 0.21734 0 0.976096
    outer loop
      vertex -20.129 -167.313 -100.632
      vertex -24.4697 -167.313 -99.6651
      vertex -24.4697 -177.475 -99.6651
    endloop
  endfacet
  facet normal 0.259423 0 0.965764
    outer loop
      vertex -24.4697 -177.475 -99.6651
      vertex -24.4697 -167.313 -99.6651
      vertex -28.7644 -177.475 -98.5114
    endloop
  endfacet
  facet normal 0.259423 0 0.965764
    outer loop
      vertex -24.4697 -167.313 -99.6651
      vertex -28.7644 -167.313 -98.5114
      vertex -28.7644 -177.475 -98.5114
    endloop
  endfacet
  facet normal 0.301018 0 0.953618
    outer loop
      vertex -28.7644 -177.475 -98.5114
      vertex -28.7644 -167.313 -98.5114
      vertex -33.0052 -177.475 -97.1728
    endloop
  endfacet
  facet normal 0.301018 0 0.953618
    outer loop
      vertex -28.7644 -167.313 -98.5114
      vertex -33.0052 -167.313 -97.1728
      vertex -33.0052 -177.475 -97.1728
    endloop
  endfacet
  facet normal 0.342049 0 0.939682
    outer loop
      vertex -33.0052 -177.475 -97.1728
      vertex -33.0052 -167.313 -97.1728
      vertex -37.184 -177.475 -95.6517
    endloop
  endfacet
  facet normal 0.342049 0 0.939682
    outer loop
      vertex -33.0052 -167.313 -97.1728
      vertex -37.184 -167.313 -95.6517
      vertex -37.184 -177.475 -95.6517
    endloop
  endfacet
  facet normal 0.382438 0 0.923981
    outer loop
      vertex -37.184 -177.475 -95.6517
      vertex -37.184 -167.313 -95.6517
      vertex -41.2929 -177.475 -93.951
    endloop
  endfacet
  facet normal 0.382438 0 0.923981
    outer loop
      vertex -37.184 -167.313 -95.6517
      vertex -41.2929 -167.313 -93.951
      vertex -41.2929 -177.475 -93.951
    endloop
  endfacet
  facet normal 0.422107 0 0.906546
    outer loop
      vertex -41.2929 -177.475 -93.951
      vertex -41.2929 -167.313 -93.951
      vertex -45.3243 -177.475 -92.0739
    endloop
  endfacet
  facet normal 0.422107 0 0.906546
    outer loop
      vertex -41.2929 -167.313 -93.951
      vertex -45.3243 -167.313 -92.0739
      vertex -45.3243 -177.475 -92.0739
    endloop
  endfacet
  facet normal 0.460985 0 0.887408
    outer loop
      vertex -45.3243 -177.475 -92.0739
      vertex -45.3243 -167.313 -92.0739
      vertex -49.2706 -177.475 -90.0239
    endloop
  endfacet
  facet normal 0.460985 0 0.887408
    outer loop
      vertex -45.3243 -167.313 -92.0739
      vertex -49.2706 -167.313 -90.0239
      vertex -49.2706 -177.475 -90.0239
    endloop
  endfacet
  facet normal 0.498997 0 0.866604
    outer loop
      vertex -49.2706 -177.475 -90.0239
      vertex -49.2706 -167.313 -90.0239
      vertex -53.1244 -177.475 -87.8048
    endloop
  endfacet
  facet normal 0.498997 0 0.866604
    outer loop
      vertex -49.2706 -167.313 -90.0239
      vertex -53.1244 -167.313 -87.8048
      vertex -53.1244 -177.475 -87.8048
    endloop
  endfacet
  facet normal 0.536071 0 0.844173
    outer loop
      vertex -53.1244 -177.475 -87.8048
      vertex -53.1244 -167.313 -87.8048
      vertex -56.8785 -177.475 -85.4209
    endloop
  endfacet
  facet normal 0.536071 0 0.844173
    outer loop
      vertex -53.1244 -167.313 -87.8048
      vertex -56.8785 -167.313 -85.4209
      vertex -56.8785 -177.475 -85.4209
    endloop
  endfacet
  facet normal 0.57214 0 0.820156
    outer loop
      vertex -56.8785 -177.475 -85.4209
      vertex -56.8785 -167.313 -85.4209
      vertex -60.5257 -177.475 -82.8766
    endloop
  endfacet
  facet normal 0.57214 0 0.820156
    outer loop
      vertex -56.8785 -167.313 -85.4209
      vertex -60.5257 -167.313 -82.8766
      vertex -60.5257 -177.475 -82.8766
    endloop
  endfacet
  facet normal 0.607133 0 0.7946
    outer loop
      vertex -60.5257 -177.475 -82.8766
      vertex -60.5257 -167.313 -82.8766
      vertex -64.0593 -177.475 -80.1767
    endloop
  endfacet
  facet normal 0.607133 0 0.7946
    outer loop
      vertex -60.5257 -167.313 -82.8766
      vertex -64.0593 -167.313 -80.1767
      vertex -64.0593 -177.475 -80.1767
    endloop
  endfacet
  facet normal 0.640988 0 0.767551
    outer loop
      vertex -64.0593 -177.475 -80.1767
      vertex -64.0593 -167.313 -80.1767
      vertex -67.4726 -177.475 -77.3262
    endloop
  endfacet
  facet normal 0.640988 0 0.767551
    outer loop
      vertex -64.0593 -167.313 -80.1767
      vertex -67.4726 -167.313 -77.3262
      vertex -67.4726 -177.475 -77.3262
    endloop
  endfacet
  facet normal 0.673639 0 0.739061
    outer loop
      vertex -67.4726 -177.475 -77.3262
      vertex -67.4726 -167.313 -77.3262
      vertex -70.7592 -177.475 -74.3305
    endloop
  endfacet
  facet normal 0.673639 0 0.739061
    outer loop
      vertex -67.4726 -167.313 -77.3262
      vertex -70.7592 -167.313 -74.3305
      vertex -70.7592 -177.475 -74.3305
    endloop
  endfacet
  facet normal 0.705023 0 0.709185
    outer loop
      vertex -70.7592 -177.475 -74.3305
      vertex -70.7592 -167.313 -74.3305
      vertex -73.913 -177.475 -71.1953
    endloop
  endfacet
  facet normal 0.705023 0 0.709185
    outer loop
      vertex -70.7592 -167.313 -74.3305
      vertex -73.913 -167.313 -71.1953
      vertex -73.913 -177.475 -71.1953
    endloop
  endfacet
  facet normal 0.735086 0 0.677974
    outer loop
      vertex -73.913 -177.475 -71.1953
      vertex -73.913 -167.313 -71.1953
      vertex -76.9279 -177.475 -67.9263
    endloop
  endfacet
  facet normal 0.735086 0 0.677974
    outer loop
      vertex -73.913 -167.313 -71.1953
      vertex -76.9279 -167.313 -67.9263
      vertex -76.9279 -177.475 -67.9263
    endloop
  endfacet
  facet normal 0.763767 0 0.645492
    outer loop
      vertex -76.9279 -177.475 -67.9263
      vertex -76.9279 -167.313 -67.9263
      vertex -79.7984 -177.475 -64.5299
    endloop
  endfacet
  facet normal 0.763767 0 0.645492
    outer loop
      vertex -76.9279 -167.313 -67.9263
      vertex -79.7984 -167.313 -64.5299
      vertex -79.7984 -177.475 -64.5299
    endloop
  endfacet
  facet normal 0.791014 0 0.611798
    outer loop
      vertex -79.7984 -177.475 -64.5299
      vertex -79.7984 -167.313 -64.5299
      vertex -82.5191 -177.475 -61.0122
    endloop
  endfacet
  facet normal 0.791014 0 0.611798
    outer loop
      vertex -79.7984 -167.313 -64.5299
      vertex -82.5191 -167.313 -61.0122
      vertex -82.5191 -177.475 -61.0122
    endloop
  endfacet
  facet normal 0.816776 0 0.576955
    outer loop
      vertex -82.5191 -177.475 -61.0122
      vertex -82.5191 -167.313 -61.0122
      vertex -85.0848 -177.475 -57.38
    endloop
  endfacet
  facet normal 0.816776 0 0.576955
    outer loop
      vertex -82.5191 -167.313 -61.0122
      vertex -85.0848 -167.313 -57.38
      vertex -85.0848 -177.475 -57.38
    endloop
  endfacet
  facet normal 0.841004 0 0.541029
    outer loop
      vertex -85.0848 -177.475 -57.38
      vertex -85.0848 -167.313 -57.38
      vertex -87.4908 -177.475 -53.6401
    endloop
  endfacet
  facet normal 0.841004 0 0.541029
    outer loop
      vertex -85.0848 -167.313 -57.38
      vertex -87.4908 -167.313 -53.6401
      vertex -87.4908 -177.475 -53.6401
    endloop
  endfacet
  facet normal 0.863654 0 0.504085
    outer loop
      vertex -87.4908 -177.475 -53.6401
      vertex -87.4908 -167.313 -53.6401
      vertex -89.7324 -177.475 -49.7994
    endloop
  endfacet
  facet normal 0.863654 0 0.504085
    outer loop
      vertex -87.4908 -167.313 -53.6401
      vertex -89.7324 -167.313 -49.7994
      vertex -89.7324 -177.475 -49.7994
    endloop
  endfacet
  facet normal 0.884681 0 0.466198
    outer loop
      vertex -89.7324 -177.475 -49.7994
      vertex -89.7324 -167.313 -49.7994
      vertex -91.8056 -177.475 -45.8652
    endloop
  endfacet
  facet normal 0.884681 0 0.466198
    outer loop
      vertex -89.7324 -167.313 -49.7994
      vertex -91.8056 -167.313 -45.8652
      vertex -91.8056 -177.475 -45.8652
    endloop
  endfacet
  facet normal 0.904047 0 0.427433
    outer loop
      vertex -91.8056 -177.475 -45.8652
      vertex -91.8056 -167.313 -45.8652
      vertex -93.7064 -177.475 -41.8449
    endloop
  endfacet
  facet normal 0.904047 0 0.427433
    outer loop
      vertex -91.8056 -167.313 -45.8652
      vertex -93.7064 -167.313 -41.8449
      vertex -93.7064 -177.475 -41.8449
    endloop
  endfacet
  facet normal 0.921715 0 0.387867
    outer loop
      vertex -93.7064 -177.475 -41.8449
      vertex -93.7064 -167.313 -41.8449
      vertex -95.4313 -177.475 -37.746
    endloop
  endfacet
  facet normal 0.921715 0 0.387867
    outer loop
      vertex -93.7064 -167.313 -41.8449
      vertex -95.4313 -167.313 -37.746
      vertex -95.4313 -177.475 -37.746
    endloop
  endfacet
  facet normal 0.937653 0 0.347572
    outer loop
      vertex -95.4313 -177.475 -37.746
      vertex -95.4313 -167.313 -37.746
      vertex -96.9769 -177.475 -33.5763
    endloop
  endfacet
  facet normal 0.937653 0 0.347572
    outer loop
      vertex -95.4313 -167.313 -37.746
      vertex -96.9769 -167.313 -33.5763
      vertex -96.9769 -177.475 -33.5763
    endloop
  endfacet
  facet normal 0.951831 0 0.306624
    outer loop
      vertex -96.9769 -177.475 -33.5763
      vertex -96.9769 -167.313 -33.5763
      vertex -98.3405 -177.475 -29.3435
    endloop
  endfacet
  facet normal 0.951831 0 0.306624
    outer loop
      vertex -96.9769 -167.313 -33.5763
      vertex -98.3405 -167.313 -29.3435
      vertex -98.3405 -177.475 -29.3435
    endloop
  endfacet
  facet normal 0.964221 0 0.265099
    outer loop
      vertex -98.3405 -177.475 -29.3435
      vertex -98.3405 -167.313 -29.3435
      vertex -99.5194 -177.475 -25.0556
    endloop
  endfacet
  facet normal 0.964221 0 0.265099
    outer loop
      vertex -98.3405 -167.313 -29.3435
      vertex -99.5194 -167.313 -25.0556
      vertex -99.5194 -177.475 -25.0556
    endloop
  endfacet
  facet normal 0.9748 0 0.22308
    outer loop
      vertex -99.5194 -177.475 -25.0556
      vertex -99.5194 -167.313 -25.0556
      vertex -100.511 -177.475 -20.7206
    endloop
  endfacet
  facet normal 0.9748 0 0.22308
    outer loop
      vertex -99.5194 -167.313 -25.0556
      vertex -100.511 -167.313 -20.7206
      vertex -100.511 -177.475 -20.7206
    endloop
  endfacet
  facet normal 0.98355 0 0.180638
    outer loop
      vertex -100.511 -177.475 -20.7206
      vertex -100.511 -167.313 -20.7206
      vertex -101.315 -177.475 -16.3468
    endloop
  endfacet
  facet normal 0.98355 0 0.180638
    outer loop
      vertex -100.511 -167.313 -20.7206
      vertex -101.315 -167.313 -16.3468
      vertex -101.315 -177.475 -16.3468
    endloop
  endfacet
  facet normal 0.990452 0 0.13786
    outer loop
      vertex -101.315 -177.475 -16.3468
      vertex -101.315 -167.313 -16.3468
      vertex -101.928 -177.475 -11.9422
    endloop
  endfacet
  facet normal 0.990452 0 0.13786
    outer loop
      vertex -101.315 -167.313 -16.3468
      vertex -101.928 -167.313 -11.9422
      vertex -101.928 -177.475 -11.9422
    endloop
  endfacet
  facet normal 0.995494 0 0.0948218
    outer loop
      vertex -101.928 -177.475 -11.9422
      vertex -101.928 -167.313 -11.9422
      vertex -102.349 -177.475 -7.51526
    endloop
  endfacet
  facet normal 0.995494 0 0.0948218
    outer loop
      vertex -101.928 -167.313 -11.9422
      vertex -102.349 -167.313 -7.51526
      vertex -102.349 -177.475 -7.51526
    endloop
  endfacet
  facet normal 0.998668 0 0.0516044
    outer loop
      vertex -102.349 -177.475 -7.51526
      vertex -102.349 -167.313 -7.51526
      vertex -102.579 -177.475 -3.07418
    endloop
  endfacet
  facet normal 0.998668 0 0.0516044
    outer loop
      vertex -102.349 -167.313 -7.51526
      vertex -102.579 -167.313 -3.07418
      vertex -102.579 -177.475 -3.07418
    endloop
  endfacet
  facet normal 0.999966 0 0.00829163
    outer loop
      vertex -102.579 -177.475 -3.07418
      vertex -102.579 -167.313 -3.07418
      vertex -102.616 -177.475 1.37268
    endloop
  endfacet
  facet normal 0.999966 0 0.00829163
    outer loop
      vertex -102.579 -167.313 -3.07418
      vertex -102.616 -167.313 1.37268
      vertex -102.616 -177.475 1.37268
    endloop
  endfacet
  facet normal 0.999386 0 -0.0350363
    outer loop
      vertex -102.616 -177.475 1.37268
      vertex -102.616 -167.313 1.37268
      vertex -102.46 -177.475 5.81696
    endloop
  endfacet
  facet normal 0.999386 0 -0.0350363
    outer loop
      vertex -102.616 -167.313 1.37268
      vertex -102.46 -167.313 5.81696
      vertex -102.46 -177.475 5.81696
    endloop
  endfacet
  facet normal 0.99693 0 -0.0783005
    outer loop
      vertex -102.46 -177.475 5.81696
      vertex -102.46 -167.313 5.81696
      vertex -102.112 -177.475 10.2503
    endloop
  endfacet
  facet normal 0.99693 0 -0.0783005
    outer loop
      vertex -102.46 -167.313 5.81696
      vertex -102.112 -167.313 10.2503
      vertex -102.112 -177.475 10.2503
    endloop
  endfacet
  facet normal 0.992602 0 -0.121416
    outer loop
      vertex -102.112 -177.475 10.2503
      vertex -102.112 -167.313 10.2503
      vertex -101.572 -177.475 14.6644
    endloop
  endfacet
  facet normal 0.992602 0 -0.121416
    outer loop
      vertex -102.112 -167.313 10.2503
      vertex -101.572 -167.313 14.6644
      vertex -101.572 -177.475 14.6644
    endloop
  endfacet
  facet normal 0.98641 0 -0.164303
    outer loop
      vertex -101.572 -177.475 14.6644
      vertex -101.572 -167.313 14.6644
      vertex -100.841 -177.475 19.051
    endloop
  endfacet
  facet normal 0.98641 0 -0.164303
    outer loop
      vertex -101.572 -167.313 14.6644
      vertex -100.841 -167.313 19.051
      vertex -100.841 -177.475 19.051
    endloop
  endfacet
  facet normal 0.978366 0 -0.206883
    outer loop
      vertex -100.841 -177.475 19.051
      vertex -100.841 -167.313 19.051
      vertex -99.9212 -177.475 23.4018
    endloop
  endfacet
  facet normal 0.978366 0 -0.206883
    outer loop
      vertex -100.841 -167.313 19.051
      vertex -99.9212 -167.313 23.4018
      vertex -99.9212 -177.475 23.4018
    endloop
  endfacet
  facet normal 0.968485 0 -0.249074
    outer loop
      vertex -99.9212 -177.475 23.4018
      vertex -99.9212 -167.313 23.4018
      vertex -98.8136 -177.475 27.7086
    endloop
  endfacet
  facet normal 0.968485 0 -0.249074
    outer loop
      vertex -99.9212 -167.313 23.4018
      vertex -98.8136 -167.313 27.7086
      vertex -98.8136 -177.475 27.7086
    endloop
  endfacet
  facet normal 0.956784 0 -0.290798
    outer loop
      vertex -98.8136 -177.475 27.7086
      vertex -98.8136 -167.313 27.7086
      vertex -97.5204 -177.475 31.9635
    endloop
  endfacet
  facet normal 0.956784 0 -0.290798
    outer loop
      vertex -98.8136 -167.313 27.7086
      vertex -97.5204 -167.313 31.9635
      vertex -97.5204 -177.475 31.9635
    endloop
  endfacet
  facet normal 0.943289 0 -0.331973
    outer loop
      vertex -97.5204 -177.475 31.9635
      vertex -97.5204 -167.313 31.9635
      vertex -96.0441 -177.475 36.1583
    endloop
  endfacet
  facet normal 0.943289 0 -0.331973
    outer loop
      vertex -97.5204 -167.313 31.9635
      vertex -96.0441 -167.313 36.1583
      vertex -96.0441 -177.475 36.1583
    endloop
  endfacet
  facet normal 0.928021 0 -0.372529
    outer loop
      vertex -96.0441 -177.475 36.1583
      vertex -96.0441 -167.313 36.1583
      vertex -94.3875 -177.475 40.2852
    endloop
  endfacet
  facet normal 0.928021 0 -0.372529
    outer loop
      vertex -96.0441 -167.313 36.1583
      vertex -94.3875 -167.313 40.2852
      vertex -94.3875 -177.475 40.2852
    endloop
  endfacet
  facet normal 0.911011 0 -0.412383
    outer loop
      vertex -94.3875 -177.475 40.2852
      vertex -94.3875 -167.313 40.2852
      vertex -92.5536 -177.475 44.3365
    endloop
  endfacet
  facet normal 0.911011 0 -0.412383
    outer loop
      vertex -94.3875 -167.313 40.2852
      vertex -92.5536 -167.313 44.3365
      vertex -92.5536 -177.475 44.3365
    endloop
  endfacet
  facet normal 0.89229 0 -0.451462
    outer loop
      vertex -92.5536 -177.475 44.3365
      vertex -92.5536 -167.313 44.3365
      vertex -90.5459 -177.475 48.3045
    endloop
  endfacet
  facet normal 0.89229 0 -0.451462
    outer loop
      vertex -92.5536 -167.313 44.3365
      vertex -90.5459 -167.313 48.3045
      vertex -90.5459 -177.475 48.3045
    endloop
  endfacet
  facet normal 0.871894 0 -0.489695
    outer loop
      vertex -90.5459 -177.475 48.3045
      vertex -90.5459 -167.313 48.3045
      vertex -88.3683 -177.475 52.1818
    endloop
  endfacet
  facet normal 0.871894 0 -0.489695
    outer loop
      vertex -90.5459 -167.313 48.3045
      vertex -88.3683 -167.313 52.1818
      vertex -88.3683 -177.475 52.1818
    endloop
  endfacet
  facet normal 0.84986 0 -0.527008
    outer loop
      vertex -88.3683 -177.475 52.1818
      vertex -88.3683 -167.313 52.1818
      vertex -86.0246 -177.475 55.9611
    endloop
  endfacet
  facet normal 0.84986 0 -0.527008
    outer loop
      vertex -88.3683 -167.313 52.1818
      vertex -86.0246 -167.313 55.9611
      vertex -86.0246 -177.475 55.9611
    endloop
  endfacet
  facet normal 0.826231 0 -0.563331
    outer loop
      vertex -86.0246 -177.475 55.9611
      vertex -86.0246 -167.313 55.9611
      vertex -83.5195 -177.475 59.6354
    endloop
  endfacet
  facet normal 0.826231 0 -0.563331
    outer loop
      vertex -86.0246 -167.313 55.9611
      vertex -83.5195 -167.313 59.6354
      vertex -83.5195 -177.475 59.6354
    endloop
  endfacet
  facet normal 0.801051 0 -0.598596
    outer loop
      vertex -83.5195 -177.475 59.6354
      vertex -83.5195 -167.313 59.6354
      vertex -80.8576 -177.475 63.1977
    endloop
  endfacet
  facet normal 0.801051 0 -0.598596
    outer loop
      vertex -83.5195 -167.313 59.6354
      vertex -80.8576 -167.313 63.1977
      vertex -80.8576 -177.475 63.1977
    endloop
  endfacet
  facet normal 0.774366 0 -0.632738
    outer loop
      vertex -80.8576 -177.475 63.1977
      vertex -80.8576 -167.313 63.1977
      vertex -78.0438 -177.475 66.6413
    endloop
  endfacet
  facet normal 0.774366 0 -0.632738
    outer loop
      vertex -80.8576 -167.313 63.1977
      vertex -78.0438 -167.313 66.6413
      vertex -78.0438 -177.475 66.6413
    endloop
  endfacet
  facet normal 0.746228 0 -0.665691
    outer loop
      vertex -78.0438 -177.475 66.6413
      vertex -78.0438 -167.313 66.6413
      vertex -75.0834 -177.475 69.9598
    endloop
  endfacet
  facet normal 0.746228 0 -0.665691
    outer loop
      vertex -78.0438 -167.313 66.6413
      vertex -75.0834 -167.313 69.9598
      vertex -75.0834 -177.475 69.9598
    endloop
  endfacet
  facet normal 0.716687 0 -0.697395
    outer loop
      vertex -75.0834 -177.475 69.9598
      vertex -75.0834 -167.313 69.9598
      vertex -71.9821 -177.475 73.1469
    endloop
  endfacet
  facet normal 0.716687 0 -0.697395
    outer loop
      vertex -75.0834 -167.313 69.9598
      vertex -71.9821 -167.313 73.1469
      vertex -71.9821 -177.475 73.1469
    endloop
  endfacet
  facet normal 0.685801 0 -0.727789
    outer loop
      vertex -71.9821 -177.475 73.1469
      vertex -71.9821 -167.313 73.1469
      vertex -68.7456 -177.475 76.1966
    endloop
  endfacet
  facet normal 0.685801 0 -0.727789
    outer loop
      vertex -71.9821 -167.313 73.1469
      vertex -68.7456 -167.313 76.1966
      vertex -68.7456 -177.475 76.1966
    endloop
  endfacet
  facet normal 0.653629 0 -0.756816
    outer loop
      vertex -68.7456 -177.475 76.1966
      vertex -68.7456 -167.313 76.1966
      vertex -65.3801 -177.475 79.1033
    endloop
  endfacet
  facet normal 0.653629 0 -0.756816
    outer loop
      vertex -68.7456 -167.313 76.1966
      vertex -65.3801 -167.313 79.1033
      vertex -65.3801 -177.475 79.1033
    endloop
  endfacet
  facet normal 0.620227 0 -0.784422
    outer loop
      vertex -65.3801 -177.475 79.1033
      vertex -65.3801 -167.313 79.1033
      vertex -61.8917 -177.475 81.8615
    endloop
  endfacet
  facet normal 0.620227 0 -0.784422
    outer loop
      vertex -65.3801 -167.313 79.1033
      vertex -61.8917 -167.313 81.8615
      vertex -61.8917 -177.475 81.8615
    endloop
  endfacet
  facet normal 0.585661 0 -0.810556
    outer loop
      vertex -61.8917 -177.475 81.8615
      vertex -61.8917 -167.313 81.8615
      vertex -58.2872 -177.475 84.4659
    endloop
  endfacet
  facet normal 0.585661 0 -0.810556
    outer loop
      vertex -61.8917 -167.313 81.8615
      vertex -58.2872 -167.313 84.4659
      vertex -58.2872 -177.475 84.4659
    endloop
  endfacet
  facet normal 0.549998 0 -0.835166
    outer loop
      vertex -58.2872 -177.475 84.4659
      vertex -58.2872 -167.313 84.4659
      vertex -54.5732 -177.475 86.9118
    endloop
  endfacet
  facet normal 0.549998 0 -0.835166
    outer loop
      vertex -58.2872 -167.313 84.4659
      vertex -54.5732 -167.313 86.9118
      vertex -54.5732 -177.475 86.9118
    endloop
  endfacet
  facet normal 0.513299 0 -0.85821
    outer loop
      vertex -54.5732 -177.475 86.9118
      vertex -54.5732 -167.313 86.9118
      vertex -50.7567 -177.475 89.1944
    endloop
  endfacet
  facet normal 0.513299 0 -0.85821
    outer loop
      vertex -54.5732 -167.313 86.9118
      vertex -50.7567 -167.313 89.1944
      vertex -50.7567 -177.475 89.1944
    endloop
  endfacet
  facet normal 0.475637 0 -0.879642
    outer loop
      vertex -50.7567 -177.475 89.1944
      vertex -50.7567 -167.313 89.1944
      vertex -46.845 -177.475 91.3096
    endloop
  endfacet
  facet normal 0.475637 0 -0.879642
    outer loop
      vertex -50.7567 -167.313 89.1944
      vertex -46.845 -167.313 91.3096
      vertex -46.845 -177.475 91.3096
    endloop
  endfacet
  facet normal 0.437083 0 -0.899421
    outer loop
      vertex -46.845 -177.475 91.3096
      vertex -46.845 -167.313 91.3096
      vertex -42.8452 -177.475 93.2533
    endloop
  endfacet
  facet normal 0.437083 0 -0.899421
    outer loop
      vertex -46.845 -167.313 91.3096
      vertex -42.8452 -167.313 93.2533
      vertex -42.8452 -177.475 93.2533
    endloop
  endfacet
  facet normal 0.397707 0 -0.917513
    outer loop
      vertex -42.8452 -177.475 93.2533
      vertex -42.8452 -167.313 93.2533
      vertex -38.765 -177.475 95.0219
    endloop
  endfacet
  facet normal 0.397707 0 -0.917513
    outer loop
      vertex -42.8452 -167.313 93.2533
      vertex -38.765 -167.313 95.0219
      vertex -38.765 -177.475 95.0219
    endloop
  endfacet
  facet normal 0.357585 0 -0.93388
    outer loop
      vertex -38.765 -177.475 95.0219
      vertex -38.765 -167.313 95.0219
      vertex -34.6121 -177.475 96.6121
    endloop
  endfacet
  facet normal 0.357585 0 -0.93388
    outer loop
      vertex -38.765 -167.313 95.0219
      vertex -34.6121 -167.313 96.6121
      vertex -34.6121 -177.475 96.6121
    endloop
  endfacet
  facet normal 0.316791 0 -0.948495
    outer loop
      vertex -34.6121 -177.475 96.6121
      vertex -34.6121 -167.313 96.6121
      vertex -30.3941 -177.475 98.0209
    endloop
  endfacet
  facet normal 0.316791 0 -0.948495
    outer loop
      vertex -34.6121 -167.313 96.6121
      vertex -30.3941 -167.313 98.0209
      vertex -30.3941 -177.475 98.0209
    endloop
  endfacet
  facet normal 0.275403 0 -0.961329
    outer loop
      vertex -30.3941 -177.475 98.0209
      vertex -30.3941 -167.313 98.0209
      vertex -26.1191 -177.475 99.2456
    endloop
  endfacet
  facet normal 0.275403 0 -0.961329
    outer loop
      vertex -30.3941 -167.313 98.0209
      vertex -26.1191 -167.313 99.2456
      vertex -26.1191 -177.475 99.2456
    endloop
  endfacet
  facet normal 0.233497 0 -0.972357
    outer loop
      vertex -26.1191 -177.475 99.2456
      vertex -26.1191 -167.313 99.2456
      vertex -21.795 -177.475 100.284
    endloop
  endfacet
  facet normal 0.233497 0 -0.972357
    outer loop
      vertex -26.1191 -167.313 99.2456
      vertex -21.795 -167.313 100.284
      vertex -21.795 -177.475 100.284
    endloop
  endfacet
  facet normal 0.191153 0 -0.98156
    outer loop
      vertex -21.795 -177.475 100.284
      vertex -21.795 -167.313 100.284
      vertex -17.43 -177.475 101.134
    endloop
  endfacet
  facet normal 0.191153 0 -0.98156
    outer loop
      vertex -21.795 -167.313 100.284
      vertex -17.43 -167.313 101.134
      vertex -17.43 -177.475 101.134
    endloop
  endfacet
  facet normal 0.14845 0 -0.98892
    outer loop
      vertex -17.43 -177.475 101.134
      vertex -17.43 -167.313 101.134
      vertex -13.0322 -177.475 101.794
    endloop
  endfacet
  facet normal 0.14845 0 -0.98892
    outer loop
      vertex -17.43 -167.313 101.134
      vertex -13.0322 -167.313 101.794
      vertex -13.0322 -177.475 101.794
    endloop
  endfacet
  facet normal 0.105469 0 -0.994423
    outer loop
      vertex -13.0322 -177.475 101.794
      vertex -13.0322 -167.313 101.794
      vertex -8.61003 -177.475 102.263
    endloop
  endfacet
  facet normal 0.105469 0 -0.994423
    outer loop
      vertex -13.0322 -167.313 101.794
      vertex -8.61003 -167.313 102.263
      vertex -8.61003 -177.475 102.263
    endloop
  endfacet
  facet normal 0.0622886 0 -0.998058
    outer loop
      vertex -8.61003 -177.475 102.263
      vertex -8.61003 -167.313 102.263
      vertex -4.17166 -177.475 102.54
    endloop
  endfacet
  facet normal 0.0622886 0 -0.998058
    outer loop
      vertex -8.61003 -167.313 102.263
      vertex -4.17166 -167.313 102.54
      vertex -4.17166 -177.475 102.54
    endloop
  endfacet
  facet normal 0.0189908 0 -0.99982
    outer loop
      vertex -4.17166 -177.475 102.54
      vertex -4.17166 -167.313 102.54
      vertex 0.274544 -177.475 102.625
    endloop
  endfacet
  facet normal 0.0189908 0 -0.99982
    outer loop
      vertex -4.17166 -167.313 102.54
      vertex 0.274544 -167.313 102.625
      vertex 0.274544 -177.475 102.625
    endloop
  endfacet
  facet normal -0.0243404 0 -0.999704
    outer loop
      vertex 0.274544 -177.475 102.625
      vertex 0.274544 -167.313 102.625
      vertex 4.72023 -177.475 102.516
    endloop
  endfacet
  facet normal -0.0243404 0 -0.999704
    outer loop
      vertex 0.274544 -167.313 102.625
      vertex 4.72023 -167.313 102.516
      vertex 4.72023 -177.475 102.516
    endloop
  endfacet
  facet normal -0.0676281 0 -0.997711
    outer loop
      vertex 4.72023 -177.475 102.516
      vertex 4.72023 -167.313 102.516
      vertex 9.15706 -177.475 102.216
    endloop
  endfacet
  facet normal -0.0676281 0 -0.997711
    outer loop
      vertex 4.72023 -167.313 102.516
      vertex 9.15706 -167.313 102.216
      vertex 9.15706 -177.475 102.216
    endloop
  endfacet
  facet normal -0.110787 0 -0.993844
    outer loop
      vertex 9.15706 -177.475 102.216
      vertex 9.15706 -167.313 102.216
      vertex 13.5767 -177.475 101.723
    endloop
  endfacet
  facet normal -0.110787 0 -0.993844
    outer loop
      vertex 9.15706 -167.313 102.216
      vertex 13.5767 -167.313 101.723
      vertex 13.5767 -177.475 101.723
    endloop
  endfacet
  facet normal -0.153739 0 -0.988111
    outer loop
      vertex 13.5767 -177.475 101.723
      vertex 13.5767 -167.313 101.723
      vertex 17.9708 -177.475 101.039
    endloop
  endfacet
  facet normal -0.153739 0 -0.988111
    outer loop
      vertex 13.5767 -167.313 101.723
      vertex 17.9708 -167.313 101.039
      vertex 17.9708 -177.475 101.039
    endloop
  endfacet
  facet normal -0.196402 0 -0.980523
    outer loop
      vertex 17.9708 -177.475 101.039
      vertex 17.9708 -167.313 101.039
      vertex 22.3312 -177.475 100.166
    endloop
  endfacet
  facet normal -0.196402 0 -0.980523
    outer loop
      vertex 17.9708 -167.313 101.039
      vertex 22.3312 -167.313 100.166
      vertex 22.3312 -177.475 100.166
    endloop
  endfacet
  facet normal -0.238696 0 -0.971094
    outer loop
      vertex 22.3312 -177.475 100.166
      vertex 22.3312 -167.313 100.166
      vertex 26.6497 -177.475 99.1044
    endloop
  endfacet
  facet normal -0.238696 0 -0.971094
    outer loop
      vertex 22.3312 -167.313 100.166
      vertex 26.6497 -167.313 99.1044
      vertex 26.6497 -177.475 99.1044
    endloop
  endfacet
  facet normal -0.280542 0 -0.959842
    outer loop
      vertex 26.6497 -177.475 99.1044
      vertex 26.6497 -167.313 99.1044
      vertex 30.9181 -177.475 97.8568
    endloop
  endfacet
  facet normal -0.280542 0 -0.959842
    outer loop
      vertex 26.6497 -167.313 99.1044
      vertex 30.9181 -167.313 97.8568
      vertex 30.9181 -177.475 97.8568
    endloop
  endfacet
  facet normal -0.321862 0 -0.946787
    outer loop
      vertex 30.9181 -177.475 97.8568
      vertex 30.9181 -167.313 97.8568
      vertex 35.1285 -177.475 96.4255
    endloop
  endfacet
  facet normal -0.321862 0 -0.946787
    outer loop
      vertex 30.9181 -167.313 97.8568
      vertex 35.1285 -167.313 96.4255
      vertex 35.1285 -177.475 96.4255
    endloop
  endfacet
  facet normal -0.362577 0 -0.931954
    outer loop
      vertex 35.1285 -177.475 96.4255
      vertex 35.1285 -167.313 96.4255
      vertex 39.2729 -177.475 94.8131
    endloop
  endfacet
  facet normal -0.362577 0 -0.931954
    outer loop
      vertex 35.1285 -167.313 96.4255
      vertex 39.2729 -167.313 94.8131
      vertex 39.2729 -177.475 94.8131
    endloop
  endfacet
  facet normal 0 0 -1
    outer loop
      vertex -53.0012 -177.475 -132.685
      vertex -53.0012 -167.313 -132.685
      vertex 31.8997 -177.475 -132.685
    endloop
  endfacet
  facet normal 0 0 -1
    outer loop
      vertex -53.0012 -167.313 -132.685
      vertex 31.8997 -167.313 -132.685
      vertex 31.8997 -177.475 -132.685
    endloop
  endfacet
  facet normal 0 1 0
    outer loop
      vertex -46.845 -167.313 91.3096
      vertex -50.7567 -167.313 89.1944
      vertex -53.0012 -167.313 132.685
    endloop
  endfacet
  facet normal 0 1 0
    outer loop
      vertex 54.3862 -167.313 131.3
      vertex 39.2729 -167.313 94.8131
      vertex 53.0012 -167.313 132.685
    endloop
  endfacet
  facet normal 0 1 0
    outer loop
      vertex 39.2729 -167.313 94.8131
      vertex 35.1285 -167.313 96.4255
      vertex 53.0012 -167.313 132.685
    endloop
  endfacet
  facet normal 0 1 0
    outer loop
      vertex 35.1285 -167.313 96.4255
      vertex 30.9181 -167.313 97.8568
      vertex 53.0012 -167.313 132.685
    endloop
  endfacet
  facet normal 0 1 0
    outer loop
      vertex 30.9181 -167.313 97.8568
      vertex 26.6497 -167.313 99.1044
      vertex 53.0012 -167.313 132.685
    endloop
  endfacet
  facet normal 0 1 0
    outer loop
      vertex 53.0012 -167.313 132.685
      vertex 26.6497 -167.313 99.1044
      vertex 22.3312 -167.313 100.166
    endloop
  endfacet
  facet normal 0 1 0
    outer loop
      vertex 22.3312 -167.313 100.166
      vertex 17.9708 -167.313 101.039
      vertex 53.0012 -167.313 132.685
    endloop
  endfacet
  facet normal 0 1 0
    outer loop
      vertex 17.9708 -167.313 101.039
      vertex 13.5767 -167.313 101.723
      vertex 53.0012 -167.313 132.685
    endloop
  endfacet
  facet normal 0 1 0
    outer loop
      vertex 53.0012 -167.313 132.685
      vertex 13.5767 -167.313 101.723
      vertex 9.15706 -167.313 102.216
    endloop
  endfacet
  facet normal 0 1 0
    outer loop
      vertex -34.6121 -167.313 96.6121
      vertex -38.765 -167.313 95.0219
      vertex -53.0012 -167.313 132.685
    endloop
  endfacet
  facet normal 0 1 0
    outer loop
      vertex -38.765 -167.313 95.0219
      vertex -42.8452 -167.313 93.2533
      vertex -53.0012 -167.313 132.685
    endloop
  endfacet
  facet normal 0 1 0
    outer loop
      vertex -53.0012 -167.313 132.685
      vertex -42.8452 -167.313 93.2533
      vertex -46.845 -167.313 91.3096
    endloop
  endfacet
  facet normal 0 1 0
    outer loop
      vertex -50.7567 -167.313 89.1944
      vertex -54.5732 -167.313 86.9118
      vertex -53.0012 -167.313 132.685
    endloop
  endfacet
  facet normal 0 1 0
    outer loop
      vertex -54.5732 -167.313 86.9118
      vertex -58.2872 -167.313 84.4659
      vertex -53.0012 -167.313 132.685
    endloop
  endfacet
  facet normal 0 1 0
    outer loop
      vertex -53.0012 -167.313 132.685
      vertex -58.2872 -167.313 84.4659
      vertex -61.8917 -167.313 81.8615
    endloop
  endfacet
  facet normal 0 1 0
    outer loop
      vertex -53.0012 -167.313 132.685
      vertex -71.9821 -167.313 73.1469
      vertex -132.685 -167.313 53.0012
    endloop
  endfacet
  facet normal 0 1 0
    outer loop
      vertex -71.9821 -167.313 73.1469
      vertex -75.0834 -167.313 69.9598
      vertex -132.685 -167.313 53.0012
    endloop
  endfacet
  facet normal 0 1 0
    outer loop
      vertex -132.685 -167.313 53.0012
      vertex -75.0834 -167.313 69.9598
      vertex -78.0438 -167.313 66.6413
    endloop
  endfacet
  facet normal 0 1 0
    outer loop
      vertex -8.61003 -167.313 102.263
      vertex -13.0322 -167.313 101.794
      vertex -53.0012 -167.313 132.685
    endloop
  endfacet
  facet normal 0 1 0
    outer loop
      vertex -13.0322 -167.313 101.794
      vertex -17.43 -167.313 101.134
      vertex -53.0012 -167.313 132.685
    endloop
  endfacet
  facet normal 0 1 0
    outer loop
      vertex -53.0012 -167.313 132.685
      vertex -17.43 -167.313 101.134
      vertex -21.795 -167.313 100.284
    endloop
  endfacet
  facet normal 0 1 0
    outer loop
      vertex -61.8917 -167.313 81.8615
      vertex -65.3801 -167.313 79.1033
      vertex -53.0012 -167.313 132.685
    endloop
  endfacet
  facet normal 0 1 0
    outer loop
      vertex -65.3801 -167.313 79.1033
      vertex -68.7456 -167.313 76.1966
      vertex -53.0012 -167.313 132.685
    endloop
  endfacet
  facet normal 0 1 0
    outer loop
      vertex -53.0012 -167.313 132.685
      vertex -68.7456 -167.313 76.1966
      vertex -71.9821 -167.313 73.1469
    endloop
  endfacet
  facet normal 0 1 0
    outer loop
      vertex -96.0441 -167.313 36.1583
      vertex -132.685 -167.313 53.0012
      vertex -94.3875 -167.313 40.2852
    endloop
  endfacet
  facet normal 0 1 0
    outer loop
      vertex -132.685 -167.313 53.0012
      vertex -92.5536 -167.313 44.3365
      vertex -94.3875 -167.313 40.2852
    endloop
  endfacet
  facet normal 0 1 0
    outer loop
      vertex -99.5194 -167.313 -25.0556
      vertex -98.3405 -167.313 -29.3435
      vertex -132.685 -167.313 -53.0012
    endloop
  endfacet
  facet normal 0 1 0
    outer loop
      vertex 23.9892 -167.313 -99.7818
      vertex 31.8997 -167.313 -132.685
      vertex 19.6439 -167.313 -100.727
    endloop
  endfacet
  facet normal 0 1 0
    outer loop
      vertex 31.8997 -167.313 -132.685
      vertex 15.2617 -167.313 -101.484
      vertex 19.6439 -167.313 -100.727
    endloop
  endfacet
  facet normal 0 1 0
    outer loop
      vertex 9.15706 -167.313 102.216
      vertex 4.72023 -167.313 102.516
      vertex 53.0012 -167.313 132.685
    endloop
  endfacet
  facet normal 0 1 0
    outer loop
      vertex 4.72023 -167.313 102.516
      vertex 0.274544 -167.313 102.625
      vertex 53.0012 -167.313 132.685
    endloop
  endfacet
  facet normal 0 1 0
    outer loop
      vertex 53.0012 -167.313 132.685
      vertex 0.274544 -167.313 102.625
      vertex -53.0012 -167.313 132.685
    endloop
  endfacet
  facet normal 0 1 0
    outer loop
      vertex 0.274544 -167.313 102.625
      vertex -4.17166 -167.313 102.54
      vertex -53.0012 -167.313 132.685
    endloop
  endfacet
  facet normal 0 1 0
    outer loop
      vertex -53.0012 -167.313 132.685
      vertex -4.17166 -167.313 102.54
      vertex -8.61003 -167.313 102.263
    endloop
  endfacet
  facet normal 0 1 0
    outer loop
      vertex -21.795 -167.313 100.284
      vertex -26.1191 -167.313 99.2456
      vertex -53.0012 -167.313 132.685
    endloop
  endfacet
  facet normal 0 1 0
    outer loop
      vertex -26.1191 -167.313 99.2456
      vertex -30.3941 -167.313 98.0209
      vertex -53.0012 -167.313 132.685
    endloop
  endfacet
  facet normal 0 1 0
    outer loop
      vertex -53.0012 -167.313 132.685
      vertex -30.3941 -167.313 98.0209
      vertex -34.6121 -167.313 96.6121
    endloop
  endfacet
  facet normal 0 1 0
    outer loop
      vertex -78.0438 -167.313 66.6413
      vertex -80.8576 -167.313 63.1977
      vertex -132.685 -167.313 53.0012
    endloop
  endfacet
  facet normal 0 1 0
    outer loop
      vertex -80.8576 -167.313 63.1977
      vertex -83.5195 -167.313 59.6354
      vertex -132.685 -167.313 53.0012
    endloop
  endfacet
  facet normal 0 1 0
    outer loop
      vertex -132.685 -167.313 53.0012
      vertex -83.5195 -167.313 59.6354
      vertex -86.0246 -167.313 55.9611
    endloop
  endfacet
  facet normal 0 1 0
    outer loop
      vertex -86.0246 -167.313 55.9611
      vertex -88.3683 -167.313 52.1818
      vertex -132.685 -167.313 53.0012
    endloop
  endfacet
  facet normal 0 1 0
    outer loop
      vertex -88.3683 -167.313 52.1818
      vertex -90.5459 -167.313 48.3045
      vertex -132.685 -167.313 53.0012
    endloop
  endfacet
  facet normal 0 1 0
    outer loop
      vertex -132.685 -167.313 53.0012
      vertex -90.5459 -167.313 48.3045
      vertex -92.5536 -167.313 44.3365
    endloop
  endfacet
  facet normal 0 1 0
    outer loop
      vertex -96.0441 -167.313 36.1583
      vertex -97.5204 -167.313 31.9635
      vertex -132.685 -167.313 53.0012
    endloop
  endfacet
  facet normal 0 1 0
    outer loop
      vertex -97.5204 -167.313 31.9635
      vertex -98.8136 -167.313 27.7086
      vertex -132.685 -167.313 53.0012
    endloop
  endfacet
  facet normal 0 1 0
    outer loop
      vertex -132.685 -167.313 53.0012
      vertex -98.8136 -167.313 27.7086
      vertex -99.9212 -167.313 23.4018
    endloop
  endfacet
  facet normal 0 1 0
    outer loop
      vertex -99.5194 -167.313 -25.0556
      vertex -132.685 -167.313 -53.0012
      vertex -100.511 -167.313 -20.7206
    endloop
  endfacet
  facet normal 0 1 0
    outer loop
      vertex -99.9212 -167.313 23.4018
      vertex -100.841 -167.313 19.051
      vertex -132.685 -167.313 53.0012
    endloop
  endfacet
  facet normal 0 1 0
    outer loop
      vertex -100.841 -167.313 19.051
      vertex -101.572 -167.313 14.6644
      vertex -132.685 -167.313 53.0012
    endloop
  endfacet
  facet normal 0 1 0
    outer loop
      vertex -132.685 -167.313 53.0012
      vertex -101.572 -167.313 14.6644
      vertex -102.112 -167.313 10.2503
    endloop
  endfacet
  facet normal 0 1 0
    outer loop
      vertex -102.349 -167.313 -7.51526
      vertex -101.928 -167.313 -11.9422
      vertex -132.685 -167.313 -53.0012
    endloop
  endfacet
  facet normal 0 1 0
    outer loop
      vertex -101.928 -167.313 -11.9422
      vertex -101.315 -167.313 -16.3468
      vertex -132.685 -167.313 -53.0012
    endloop
  endfacet
  facet normal 0 1 0
    outer loop
      vertex -132.685 -167.313 -53.0012
      vertex -101.315 -167.313 -16.3468
      vertex -100.511 -167.313 -20.7206
    endloop
  endfacet
  facet normal 0 1 0
    outer loop
      vertex -102.112 -167.313 10.2503
      vertex -102.46 -167.313 5.81696
      vertex -132.685 -167.313 53.0012
    endloop
  endfacet
  facet normal 0 1 0
    outer loop
      vertex -102.46 -167.313 5.81696
      vertex -102.616 -167.313 1.37268
      vertex -132.685 -167.313 53.0012
    endloop
  endfacet
  facet normal 0 1 0
    outer loop
      vertex -132.685 -167.313 53.0012
      vertex -102.616 -167.313 1.37268
      vertex -132.685 -167.313 -53.0012
    endloop
  endfacet
  facet normal 0 1 0
    outer loop
      vertex -102.616 -167.313 1.37268
      vertex -102.579 -167.313 -3.07418
      vertex -132.685 -167.313 -53.0012
    endloop
  endfacet
  facet normal 0 1 0
    outer loop
      vertex -132.685 -167.313 -53.0012
      vertex -102.579 -167.313 -3.07418
      vertex -102.349 -167.313 -7.51526
    endloop
  endfacet
  facet normal 0 1 0
    outer loop
      vertex -98.3405 -167.313 -29.3435
      vertex -96.9769 -167.313 -33.5763
      vertex -132.685 -167.313 -53.0012
    endloop
  endfacet
  facet normal 0 1 0
    outer loop
      vertex -96.9769 -167.313 -33.5763
      vertex -95.4313 -167.313 -37.746
      vertex -132.685 -167.313 -53.0012
    endloop
  endfacet
  facet normal 0 1 0
    outer loop
      vertex -132.685 -167.313 -53.0012
      vertex -95.4313 -167.313 -37.746
      vertex -93.7064 -167.313 -41.8449
    endloop
  endfacet
  facet normal 0 1 0
    outer loop
      vertex -87.4908 -167.313 -53.6401
      vertex -85.0848 -167.313 -57.38
      vertex -132.685 -167.313 -53.0012
    endloop
  endfacet
  facet normal 0 1 0
    outer loop
      vertex -85.0848 -167.313 -57.38
      vertex -82.5191 -167.313 -61.0122
      vertex -132.685 -167.313 -53.0012
    endloop
  endfacet
  facet normal 0 1 0
    outer loop
      vertex -132.685 -167.313 -53.0012
      vertex -82.5191 -167.313 -61.0122
      vertex -79.7984 -167.313 -64.5299
    endloop
  endfacet
  facet normal 0 1 0
    outer loop
      vertex -93.7064 -167.313 -41.8449
      vertex -91.8056 -167.313 -45.8652
      vertex -132.685 -167.313 -53.0012
    endloop
  endfacet
  facet normal 0 1 0
    outer loop
      vertex -91.8056 -167.313 -45.8652
      vertex -89.7324 -167.313 -49.7994
      vertex -132.685 -167.313 -53.0012
    endloop
  endfacet
  facet normal 0 1 0
    outer loop
      vertex -132.685 -167.313 -53.0012
      vertex -89.7324 -167.313 -49.7994
      vertex -87.4908 -167.313 -53.6401
    endloop
  endfacet
  facet normal 0 1 0
    outer loop
      vertex -67.4726 -167.313 -77.3262
      vertex -64.0593 -167.313 -80.1767
      vertex -53.0012 -167.313 -132.685
    endloop
  endfacet
  facet normal 0 1 0
    outer loop
      vertex -64.0593 -167.313 -80.1767
      vertex -60.5257 -167.313 -82.8766
      vertex -53.0012 -167.313 -132.685
    endloop
  endfacet
  facet normal 0 1 0
    outer loop
      vertex -53.0012 -167.313 -132.685
      vertex -60.5257 -167.313 -82.8766
      vertex -56.8785 -167.313 -85.4209
    endloop
  endfacet
  facet normal 0 1 0
    outer loop
      vertex -56.8785 -167.313 -85.4209
      vertex -53.1244 -167.313 -87.8048
      vertex -53.0012 -167.313 -132.685
    endloop
  endfacet
  facet normal 0 1 0
    outer loop
      vertex -53.1244 -167.313 -87.8048
      vertex -49.2706 -167.313 -90.0239
      vertex -53.0012 -167.313 -132.685
    endloop
  endfacet
  facet normal 0 1 0
    outer loop
      vertex -53.0012 -167.313 -132.685
      vertex -49.2706 -167.313 -90.0239
      vertex -45.3243 -167.313 -92.0739
    endloop
  endfacet
  facet normal 0 1 0
    outer loop
      vertex -45.3243 -167.313 -92.0739
      vertex -41.2929 -167.313 -93.951
      vertex -53.0012 -167.313 -132.685
    endloop
  endfacet
  facet normal 0 1 0
    outer loop
      vertex -41.2929 -167.313 -93.951
      vertex -37.184 -167.313 -95.6517
      vertex -53.0012 -167.313 -132.685
    endloop
  endfacet
  facet normal 0 1 0
    outer loop
      vertex -53.0012 -167.313 -132.685
      vertex -37.184 -167.313 -95.6517
      vertex -33.0052 -167.313 -97.1728
    endloop
  endfacet
  facet normal 0 1 0
    outer loop
      vertex -53.0012 -167.313 -132.685
      vertex -20.129 -167.313 -100.632
      vertex -15.7505 -167.313 -101.409
    endloop
  endfacet
  facet normal 0 1 0
    outer loop
      vertex -79.7984 -167.313 -64.5299
      vertex -76.9279 -167.313 -67.9263
      vertex -132.685 -167.313 -53.0012
    endloop
  endfacet
  facet normal 0 1 0
    outer loop
      vertex -76.9279 -167.313 -67.9263
      vertex -73.913 -167.313 -71.1953
      vertex -132.685 -167.313 -53.0012
    endloop
  endfacet
  facet normal 0 1 0
    outer loop
      vertex -132.685 -167.313 -53.0012
      vertex -73.913 -167.313 -71.1953
      vertex -53.0012 -167.313 -132.685
    endloop
  endfacet
  facet normal 0 1 0
    outer loop
      vertex -73.913 -167.313 -71.1953
      vertex -70.7592 -167.313 -74.3305
      vertex -53.0012 -167.313 -132.685
    endloop
  endfacet
  facet normal 0 1 0
    outer loop
      vertex -53.0012 -167.313 -132.685
      vertex -70.7592 -167.313 -74.3305
      vertex -67.4726 -167.313 -77.3262
    endloop
  endfacet
  facet normal 0 1 0
    outer loop
      vertex -33.0052 -167.313 -97.1728
      vertex -28.7644 -167.313 -98.5114
      vertex -53.0012 -167.313 -132.685
    endloop
  endfacet
  facet normal 0 1 0
    outer loop
      vertex -28.7644 -167.313 -98.5114
      vertex -24.4697 -167.313 -99.6651
      vertex -53.0012 -167.313 -132.685
    endloop
  endfacet
  facet normal 0 1 0
    outer loop
      vertex -53.0012 -167.313 -132.685
      vertex -24.4697 -167.313 -99.6651
      vertex -20.129 -167.313 -100.632
    endloop
  endfacet
  facet normal 0 1 0
    outer loop
      vertex -15.7505 -167.313 -101.409
      vertex -11.3424 -167.313 -101.996
      vertex -53.0012 -167.313 -132.685
    endloop
  endfacet
  facet normal 0 1 0
    outer loop
      vertex -11.3424 -167.313 -101.996
      vertex -6.91301 -167.313 -102.392
      vertex -53.0012 -167.313 -132.685
    endloop
  endfacet
  facet normal 0 1 0
    outer loop
      vertex -53.0012 -167.313 -132.685
      vertex -6.91301 -167.313 -102.392
      vertex 31.8997 -167.313 -132.685
    endloop
  endfacet
  facet normal 0 1 0
    outer loop
      vertex -6.91301 -167.313 -102.392
      vertex -2.47066 -167.313 -102.595
      vertex 31.8997 -167.313 -132.685
    endloop
  endfacet
  facet normal 0 1 0
    outer loop
      vertex 31.8997 -167.313 -132.685
      vertex -2.47066 -167.313 -102.595
      vertex 1.97634 -167.313 -102.606
    endloop
  endfacet
  facet normal 0 1 0
    outer loop
      vertex 1.97634 -167.313 -102.606
      vertex 6.41962 -167.313 -102.424
      vertex 31.8997 -167.313 -132.685
    endloop
  endfacet
  facet normal 0 1 0
    outer loop
      vertex 6.41962 -167.313 -102.424
      vertex 10.8509 -167.313 -102.05
      vertex 31.8997 -167.313 -132.685
    endloop
  endfacet
  facet normal 0 1 0
    outer loop
      vertex 31.8997 -167.313 -132.685
      vertex 10.8509 -167.313 -102.05
      vertex 15.2617 -167.313 -101.484
    endloop
  endfacet
  facet normal -0.707107 0 -0.707107
    outer loop
      vertex -53.0012 -177.475 -132.685
      vertex -132.685 -177.475 -53.0012
      vertex -53.0012 -167.313 -132.685
    endloop
  endfacet
  facet normal -0.707107 0 -0.707107
    outer loop
      vertex -132.685 -177.475 -53.0012
      vertex -132.685 -167.313 -53.0012
      vertex -53.0012 -167.313 -132.685
    endloop
  endfacet
endsolid Mesh
