solid Mesh
  facet normal 0.92388 0 -0.382683
    outer loop
      vertex 54.3862 215.65 131.3
      vertex 2.58883 215.65 6.25
      vertex 54.3862 225.812 131.3
    endloop
  endfacet
  facet normal 0.92388 0 -0.382683
    outer loop
      vertex 2.58883 215.65 6.25
      vertex 2.58883 225.812 6.25
      vertex 54.3862 225.812 131.3
    endloop
  endfacet
  facet normal 0 0 1
    outer loop
      vertex -54.3862 215.65 131.3
      vertex 54.3862 215.65 131.3
      vertex -54.3862 225.812 131.3
    endloop
  endfacet
  facet normal 0 0 1
    outer loop
      vertex 54.3862 215.65 131.3
      vertex 54.3862 225.812 131.3
      vertex -54.3862 225.812 131.3
    endloop
  endfacet
  facet normal -0.707107 0 0.707107
    outer loop
      vertex -131.3 215.65 54.3862
      vertex -54.3862 215.65 131.3
      vertex -131.3 225.812 54.3862
    endloop
  endfacet
  facet normal -0.707107 0 0.707107
    outer loop
      vertex -54.3862 215.65 131.3
      vertex -54.3862 225.812 131.3
      vertex -131.3 225.812 54.3862
    endloop
  endfacet
  facet normal -1 0 0
    outer loop
      vertex -131.3 215.65 -54.3862
      vertex -131.3 215.65 54.3862
      vertex -131.3 225.812 -54.3862
    endloop
  endfacet
  facet normal -1 0 0
    outer loop
      vertex -131.3 215.65 54.3862
      vertex -131.3 225.812 54.3862
      vertex -131.3 225.812 -54.3862
    endloop
  endfacet
  facet normal -0.707107 0 -0.707107
    outer loop
      vertex -54.3862 215.65 -131.3
      vertex -131.3 215.65 -54.3862
      vertex -54.3862 225.812 -131.3
    endloop
  endfacet
  facet normal -0.707107 0 -0.707107
    outer loop
      vertex -131.3 215.65 -54.3862
      vertex -131.3 225.812 -54.3862
      vertex -54.3862 225.812 -131.3
    endloop
  endfacet
  facet normal 0 0 1
    outer loop
      vertex -3.75 225.812 -6.25
      vertex -3.75 215.65 -6.25
      vertex 1.51966 225.812 -6.25
    endloop
  endfacet
  facet normal 0 0 1
    outer loop
      vertex -3.75 215.65 -6.25
      vertex 1.51966 215.65 -6.25
      vertex 1.51966 225.812 -6.25
    endloop
  endfacet
  facet normal 0 -1 0
    outer loop
      vertex -4.8353 215.65 -6.15505
      vertex -5.10275 215.65 -6.10185
      vertex -54.3862 215.65 -131.3
    endloop
  endfacet
  facet normal 0 -1 0
    outer loop
      vertex -54.3862 215.65 131.3
      vertex -4.02262 215.65 6.24405
      vertex 54.3862 215.65 131.3
    endloop
  endfacet
  facet normal 0 -1 0
    outer loop
      vertex -4.02262 215.65 6.24405
      vertex -3.75 215.65 6.25
      vertex 54.3862 215.65 131.3
    endloop
  endfacet
  facet normal 0 -1 0
    outer loop
      vertex 54.3862 215.65 131.3
      vertex -3.75 215.65 6.25
      vertex 2.58883 215.65 6.25
    endloop
  endfacet
  facet normal 0 -1 0
    outer loop
      vertex -4.8353 215.65 -6.15505
      vertex -54.3862 215.65 -131.3
      vertex -4.56579 215.65 -6.19653
    endloop
  endfacet
  facet normal 0 -1 0
    outer loop
      vertex -5.36762 215.65 6.03704
      vertex -5.10275 215.65 6.10185
      vertex -54.3862 215.65 131.3
    endloop
  endfacet
  facet normal 0 -1 0
    outer loop
      vertex -5.10275 215.65 6.10185
      vertex -4.8353 215.65 6.15505
      vertex -54.3862 215.65 131.3
    endloop
  endfacet
  facet normal 0 -1 0
    outer loop
      vertex -9.0212 215.65 3.35812
      vertex -8.8697 215.65 3.58485
      vertex -131.3 215.65 54.3862
    endloop
  endfacet
  facet normal 0 -1 0
    outer loop
      vertex -8.16942 215.65 4.41942
      vertex -7.97244 215.65 4.60798
      vertex -54.3862 215.65 131.3
    endloop
  endfacet
  facet normal 0 -1 0
    outer loop
      vertex -7.97244 215.65 4.60798
      vertex -7.76742 215.65 4.78778
      vertex -54.3862 215.65 131.3
    endloop
  endfacet
  facet normal 0 -1 0
    outer loop
      vertex -54.3862 215.65 131.3
      vertex -7.76742 215.65 4.78778
      vertex -7.55476 215.65 4.95846
    endloop
  endfacet
  facet normal 0 -1 0
    outer loop
      vertex -4.8353 215.65 6.15505
      vertex -4.56579 215.65 6.19653
      vertex -54.3862 215.65 131.3
    endloop
  endfacet
  facet normal 0 -1 0
    outer loop
      vertex -4.56579 215.65 6.19653
      vertex -4.29472 215.65 6.22622
      vertex -54.3862 215.65 131.3
    endloop
  endfacet
  facet normal 0 -1 0
    outer loop
      vertex -54.3862 215.65 131.3
      vertex -4.29472 215.65 6.22622
      vertex -4.02262 215.65 6.24405
    endloop
  endfacet
  facet normal 0 -1 0
    outer loop
      vertex -7.10812 215.65 -5.2712
      vertex -54.3862 215.65 -131.3
      vertex -6.875 215.65 -5.41266
    endloop
  endfacet
  facet normal 0 -1 0
    outer loop
      vertex -54.3862 215.65 -131.3
      vertex -6.63593 215.65 -5.54382
      vertex -6.875 215.65 -5.41266
    endloop
  endfacet
  facet normal 0 -1 0
    outer loop
      vertex -8.8697 215.65 3.58485
      vertex -8.70846 215.65 3.80476
      vertex -131.3 215.65 54.3862
    endloop
  endfacet
  facet normal 0 -1 0
    outer loop
      vertex -8.70846 215.65 3.80476
      vertex -8.53778 215.65 4.01742
      vertex -131.3 215.65 54.3862
    endloop
  endfacet
  facet normal 0 -1 0
    outer loop
      vertex -131.3 215.65 54.3862
      vertex -8.53778 215.65 4.01742
      vertex -54.3862 215.65 131.3
    endloop
  endfacet
  facet normal 0 -1 0
    outer loop
      vertex -8.53778 215.65 4.01742
      vertex -8.35798 215.65 4.22244
      vertex -54.3862 215.65 131.3
    endloop
  endfacet
  facet normal 0 -1 0
    outer loop
      vertex -54.3862 215.65 131.3
      vertex -8.35798 215.65 4.22244
      vertex -8.16942 215.65 4.41942
    endloop
  endfacet
  facet normal 0 -1 0
    outer loop
      vertex -7.55476 215.65 4.95846
      vertex -7.33485 215.65 5.1197
      vertex -54.3862 215.65 131.3
    endloop
  endfacet
  facet normal 0 -1 0
    outer loop
      vertex -7.33485 215.65 5.1197
      vertex -7.10812 215.65 5.2712
      vertex -54.3862 215.65 131.3
    endloop
  endfacet
  facet normal 0 -1 0
    outer loop
      vertex -54.3862 215.65 131.3
      vertex -7.10812 215.65 5.2712
      vertex -6.875 215.65 5.41266
    endloop
  endfacet
  facet normal 0 -1 0
    outer loop
      vertex -6.875 215.65 5.41266
      vertex -6.63593 215.65 5.54382
      vertex -54.3862 215.65 131.3
    endloop
  endfacet
  facet normal 0 -1 0
    outer loop
      vertex -6.63593 215.65 5.54382
      vertex -6.39136 215.65 5.66442
      vertex -54.3862 215.65 131.3
    endloop
  endfacet
  facet normal 0 -1 0
    outer loop
      vertex -54.3862 215.65 131.3
      vertex -6.39136 215.65 5.66442
      vertex -6.14177 215.65 5.77425
    endloop
  endfacet
  facet normal 0 -1 0
    outer loop
      vertex 1.51966 215.65 -6.25
      vertex -3.75 215.65 -6.25
      vertex 31.925 215.65 -131.3
    endloop
  endfacet
  facet normal 0 -1 0
    outer loop
      vertex -3.75 215.65 -6.25
      vertex -4.02262 215.65 -6.24405
      vertex 31.925 215.65 -131.3
    endloop
  endfacet
  facet normal 0 -1 0
    outer loop
      vertex 31.925 215.65 -131.3
      vertex -4.02262 215.65 -6.24405
      vertex -54.3862 215.65 -131.3
    endloop
  endfacet
  facet normal 0 -1 0
    outer loop
      vertex -4.02262 215.65 -6.24405
      vertex -4.29472 215.65 -6.22622
      vertex -54.3862 215.65 -131.3
    endloop
  endfacet
  facet normal 0 -1 0
    outer loop
      vertex -54.3862 215.65 -131.3
      vertex -4.29472 215.65 -6.22622
      vertex -4.56579 215.65 -6.19653
    endloop
  endfacet
  facet normal 0 -1 0
    outer loop
      vertex -7.76742 215.65 -4.78778
      vertex -7.97244 215.65 -4.60798
      vertex -54.3862 215.65 -131.3
    endloop
  endfacet
  facet normal 0 -1 0
    outer loop
      vertex -6.14177 215.65 5.77425
      vertex -5.88763 215.65 5.87308
      vertex -54.3862 215.65 131.3
    endloop
  endfacet
  facet normal 0 -1 0
    outer loop
      vertex -5.88763 215.65 5.87308
      vertex -5.62941 215.65 5.96073
      vertex -54.3862 215.65 131.3
    endloop
  endfacet
  facet normal 0 -1 0
    outer loop
      vertex -54.3862 215.65 131.3
      vertex -5.62941 215.65 5.96073
      vertex -5.36762 215.65 6.03704
    endloop
  endfacet
  facet normal 0 -1 0
    outer loop
      vertex -5.10275 215.65 -6.10185
      vertex -5.36762 215.65 -6.03704
      vertex -54.3862 215.65 -131.3
    endloop
  endfacet
  facet normal 0 -1 0
    outer loop
      vertex -5.36762 215.65 -6.03704
      vertex -5.62941 215.65 -5.96073
      vertex -54.3862 215.65 -131.3
    endloop
  endfacet
  facet normal 0 -1 0
    outer loop
      vertex -54.3862 215.65 -131.3
      vertex -5.62941 215.65 -5.96073
      vertex -5.88763 215.65 -5.87308
    endloop
  endfacet
  facet normal 0 -1 0
    outer loop
      vertex -5.88763 215.65 -5.87308
      vertex -6.14177 215.65 -5.77425
      vertex -54.3862 215.65 -131.3
    endloop
  endfacet
  facet normal 0 -1 0
    outer loop
      vertex -6.14177 215.65 -5.77425
      vertex -6.39136 215.65 -5.66442
      vertex -54.3862 215.65 -131.3
    endloop
  endfacet
  facet normal 0 -1 0
    outer loop
      vertex -54.3862 215.65 -131.3
      vertex -6.39136 215.65 -5.66442
      vertex -6.63593 215.65 -5.54382
    endloop
  endfacet
  facet normal 0 -1 0
    outer loop
      vertex -54.3862 215.65 -131.3
      vertex -7.97244 215.65 -4.60798
      vertex -131.3 215.65 -54.3862
    endloop
  endfacet
  facet normal 0 -1 0
    outer loop
      vertex -7.97244 215.65 -4.60798
      vertex -8.16942 215.65 -4.41942
      vertex -131.3 215.65 -54.3862
    endloop
  endfacet
  facet normal 0 -1 0
    outer loop
      vertex -8.16942 215.65 -4.41942
      vertex -8.35798 215.65 -4.22244
      vertex -131.3 215.65 -54.3862
    endloop
  endfacet
  facet normal 0 -1 0
    outer loop
      vertex -131.3 215.65 -54.3862
      vertex -8.35798 215.65 -4.22244
      vertex -131.3 215.65 54.3862
    endloop
  endfacet
  facet normal 0 -1 0
    outer loop
      vertex -8.35798 215.65 -4.22244
      vertex -8.53778 215.65 -4.01742
      vertex -131.3 215.65 54.3862
    endloop
  endfacet
  facet normal 0 -1 0
    outer loop
      vertex -7.10812 215.65 -5.2712
      vertex -7.33485 215.65 -5.1197
      vertex -54.3862 215.65 -131.3
    endloop
  endfacet
  facet normal 0 -1 0
    outer loop
      vertex -7.33485 215.65 -5.1197
      vertex -7.55476 215.65 -4.95846
      vertex -54.3862 215.65 -131.3
    endloop
  endfacet
  facet normal 0 -1 0
    outer loop
      vertex -54.3862 215.65 -131.3
      vertex -7.55476 215.65 -4.95846
      vertex -7.76742 215.65 -4.78778
    endloop
  endfacet
  facet normal 0 -1 0
    outer loop
      vertex -9.52425 215.65 2.39177
      vertex -9.41442 215.65 2.64136
      vertex -131.3 215.65 54.3862
    endloop
  endfacet
  facet normal 0 -1 0
    outer loop
      vertex -9.52425 215.65 2.39177
      vertex -131.3 215.65 54.3862
      vertex -9.62308 215.65 2.13763
    endloop
  endfacet
  facet normal 0 -1 0
    outer loop
      vertex -9.41442 215.65 2.64136
      vertex -9.29382 215.65 2.88593
      vertex -131.3 215.65 54.3862
    endloop
  endfacet
  facet normal 0 -1 0
    outer loop
      vertex -9.29382 215.65 2.88593
      vertex -9.16266 215.65 3.125
      vertex -131.3 215.65 54.3862
    endloop
  endfacet
  facet normal 0 -1 0
    outer loop
      vertex -131.3 215.65 54.3862
      vertex -9.16266 215.65 3.125
      vertex -9.0212 215.65 3.35812
    endloop
  endfacet
  facet normal 0 -1 0
    outer loop
      vertex -9.94653 215.65 -0.815789
      vertex -131.3 215.65 54.3862
      vertex -9.90505 215.65 -1.0853
    endloop
  endfacet
  facet normal 0 -1 0
    outer loop
      vertex -131.3 215.65 54.3862
      vertex -9.85185 215.65 -1.35275
      vertex -9.90505 215.65 -1.0853
    endloop
  endfacet
  facet normal 0 -1 0
    outer loop
      vertex -9.94653 215.65 -0.815789
      vertex -9.97622 215.65 -0.544723
      vertex -131.3 215.65 54.3862
    endloop
  endfacet
  facet normal 0 -1 0
    outer loop
      vertex -9.97622 215.65 -0.544723
      vertex -9.99405 215.65 -0.272621
      vertex -131.3 215.65 54.3862
    endloop
  endfacet
  facet normal 0 -1 0
    outer loop
      vertex -131.3 215.65 54.3862
      vertex -9.99405 215.65 -0.272621
      vertex -10 215.65 3.36855e-15
    endloop
  endfacet
  facet normal 0 -1 0
    outer loop
      vertex -9.94653 215.65 0.815789
      vertex -9.90505 215.65 1.0853
      vertex -131.3 215.65 54.3862
    endloop
  endfacet
  facet normal 0 -1 0
    outer loop
      vertex -9.90505 215.65 1.0853
      vertex -9.85185 215.65 1.35275
      vertex -131.3 215.65 54.3862
    endloop
  endfacet
  facet normal 0 -1 0
    outer loop
      vertex -9.41442 215.65 -2.64136
      vertex -9.52425 215.65 -2.39177
      vertex -131.3 215.65 54.3862
    endloop
  endfacet
  facet normal 0 -1 0
    outer loop
      vertex -9.52425 215.65 -2.39177
      vertex -9.62308 215.65 -2.13763
      vertex -131.3 215.65 54.3862
    endloop
  endfacet
  facet normal 0 -1 0
    outer loop
      vertex -9.85185 215.65 1.35275
      vertex -9.78704 215.65 1.61762
      vertex -131.3 215.65 54.3862
    endloop
  endfacet
  facet normal 0 -1 0
    outer loop
      vertex -9.78704 215.65 1.61762
      vertex -9.71073 215.65 1.87941
      vertex -131.3 215.65 54.3862
    endloop
  endfacet
  facet normal 0 -1 0
    outer loop
      vertex -131.3 215.65 54.3862
      vertex -9.71073 215.65 1.87941
      vertex -9.62308 215.65 2.13763
    endloop
  endfacet
  facet normal 0 -1 0
    outer loop
      vertex -8.53778 215.65 -4.01742
      vertex -8.70846 215.65 -3.80476
      vertex -131.3 215.65 54.3862
    endloop
  endfacet
  facet normal 0 -1 0
    outer loop
      vertex -8.70846 215.65 -3.80476
      vertex -8.8697 215.65 -3.58485
      vertex -131.3 215.65 54.3862
    endloop
  endfacet
  facet normal 0 -1 0
    outer loop
      vertex -131.3 215.65 54.3862
      vertex -8.8697 215.65 -3.58485
      vertex -9.0212 215.65 -3.35812
    endloop
  endfacet
  facet normal 0 -1 0
    outer loop
      vertex -9.0212 215.65 -3.35812
      vertex -9.16266 215.65 -3.125
      vertex -131.3 215.65 54.3862
    endloop
  endfacet
  facet normal 0 -1 0
    outer loop
      vertex -9.16266 215.65 -3.125
      vertex -9.29382 215.65 -2.88593
      vertex -131.3 215.65 54.3862
    endloop
  endfacet
  facet normal 0 -1 0
    outer loop
      vertex -131.3 215.65 54.3862
      vertex -9.29382 215.65 -2.88593
      vertex -9.41442 215.65 -2.64136
    endloop
  endfacet
  facet normal 0 -1 0
    outer loop
      vertex -9.62308 215.65 -2.13763
      vertex -9.71073 215.65 -1.87941
      vertex -131.3 215.65 54.3862
    endloop
  endfacet
  facet normal 0 -1 0
    outer loop
      vertex -9.71073 215.65 -1.87941
      vertex -9.78704 215.65 -1.61762
      vertex -131.3 215.65 54.3862
    endloop
  endfacet
  facet normal 0 -1 0
    outer loop
      vertex -131.3 215.65 54.3862
      vertex -9.78704 215.65 -1.61762
      vertex -9.85185 215.65 -1.35275
    endloop
  endfacet
  facet normal 0 -1 0
    outer loop
      vertex -10 215.65 3.36855e-15
      vertex -9.99405 215.65 0.272621
      vertex -131.3 215.65 54.3862
    endloop
  endfacet
  facet normal 0 -1 0
    outer loop
      vertex -9.99405 215.65 0.272621
      vertex -9.97622 215.65 0.544723
      vertex -131.3 215.65 54.3862
    endloop
  endfacet
  facet normal 0 -1 0
    outer loop
      vertex -131.3 215.65 54.3862
      vertex -9.97622 215.65 0.544723
      vertex -9.94653 215.65 0.815789
    endloop
  endfacet
  facet normal 0 0 -1
    outer loop
      vertex 31.925 215.65 -131.3
      vertex -54.3862 215.65 -131.3
      vertex 31.925 225.812 -131.3
    endloop
  endfacet
  facet normal 0 0 -1
    outer loop
      vertex -54.3862 215.65 -131.3
      vertex -54.3862 225.812 -131.3
      vertex 31.925 225.812 -131.3
    endloop
  endfacet
  facet normal 0 1 0
    outer loop
      vertex -4.02262 225.812 6.24405
      vertex -4.29472 225.812 6.22622
      vertex -54.3862 225.812 131.3
    endloop
  endfacet
  facet normal 0 1 0
    outer loop
      vertex -8.53778 225.812 4.01742
      vertex -8.70846 225.812 3.80476
      vertex -131.3 225.812 54.3862
    endloop
  endfacet
  facet normal 0 1 0
    outer loop
      vertex -9.16266 225.812 3.125
      vertex -9.29382 225.812 2.88593
      vertex -131.3 225.812 54.3862
    endloop
  endfacet
  facet normal 0 1 0
    outer loop
      vertex -9.97622 225.812 -0.544723
      vertex -9.94653 225.812 -0.815789
      vertex -131.3 225.812 -54.3862
    endloop
  endfacet
  facet normal 0 1 0
    outer loop
      vertex -8.53778 225.812 4.01742
      vertex -131.3 225.812 54.3862
      vertex -8.35798 225.812 4.22244
    endloop
  endfacet
  facet normal 0 1 0
    outer loop
      vertex -7.33485 225.812 -5.1197
      vertex -7.10812 225.812 -5.2712
      vertex -54.3862 225.812 -131.3
    endloop
  endfacet
  facet normal 0 1 0
    outer loop
      vertex 54.3862 225.812 131.3
      vertex 2.58883 225.812 6.25
      vertex -54.3862 225.812 131.3
    endloop
  endfacet
  facet normal 0 1 0
    outer loop
      vertex 2.58883 225.812 6.25
      vertex -3.75 225.812 6.25
      vertex -54.3862 225.812 131.3
    endloop
  endfacet
  facet normal 0 1 0
    outer loop
      vertex -54.3862 225.812 131.3
      vertex -3.75 225.812 6.25
      vertex -4.02262 225.812 6.24405
    endloop
  endfacet
  facet normal 0 1 0
    outer loop
      vertex -9.29382 225.812 2.88593
      vertex -9.41442 225.812 2.64136
      vertex -131.3 225.812 54.3862
    endloop
  endfacet
  facet normal 0 1 0
    outer loop
      vertex -9.41442 225.812 2.64136
      vertex -9.52425 225.812 2.39177
      vertex -131.3 225.812 54.3862
    endloop
  endfacet
  facet normal 0 1 0
    outer loop
      vertex -131.3 225.812 54.3862
      vertex -9.52425 225.812 2.39177
      vertex -9.62308 225.812 2.13763
    endloop
  endfacet
  facet normal 0 1 0
    outer loop
      vertex -131.3 225.812 -54.3862
      vertex -9.78704 225.812 -1.61762
      vertex -9.71073 225.812 -1.87941
    endloop
  endfacet
  facet normal 0 1 0
    outer loop
      vertex -9.71073 225.812 -1.87941
      vertex -9.62308 225.812 -2.13763
      vertex -131.3 225.812 -54.3862
    endloop
  endfacet
  facet normal 0 1 0
    outer loop
      vertex -9.62308 225.812 -2.13763
      vertex -9.52425 225.812 -2.39177
      vertex -131.3 225.812 -54.3862
    endloop
  endfacet
  facet normal 0 1 0
    outer loop
      vertex -131.3 225.812 -54.3862
      vertex -9.52425 225.812 -2.39177
      vertex -9.41442 225.812 -2.64136
    endloop
  endfacet
  facet normal 0 1 0
    outer loop
      vertex -9.41442 225.812 -2.64136
      vertex -9.29382 225.812 -2.88593
      vertex -131.3 225.812 -54.3862
    endloop
  endfacet
  facet normal 0 1 0
    outer loop
      vertex -9.29382 225.812 -2.88593
      vertex -9.16266 225.812 -3.125
      vertex -131.3 225.812 -54.3862
    endloop
  endfacet
  facet normal 0 1 0
    outer loop
      vertex -131.3 225.812 -54.3862
      vertex -9.16266 225.812 -3.125
      vertex -9.0212 225.812 -3.35812
    endloop
  endfacet
  facet normal 0 1 0
    outer loop
      vertex -7.10812 225.812 -5.2712
      vertex -6.875 225.812 -5.41266
      vertex -54.3862 225.812 -131.3
    endloop
  endfacet
  facet normal 0 1 0
    outer loop
      vertex -6.875 225.812 -5.41266
      vertex -6.63593 225.812 -5.54382
      vertex -54.3862 225.812 -131.3
    endloop
  endfacet
  facet normal 0 1 0
    outer loop
      vertex -54.3862 225.812 -131.3
      vertex -6.63593 225.812 -5.54382
      vertex -6.39136 225.812 -5.66442
    endloop
  endfacet
  facet normal 0 1 0
    outer loop
      vertex -54.3862 225.812 -131.3
      vertex -5.62941 225.812 -5.96073
      vertex -5.36762 225.812 -6.03704
    endloop
  endfacet
  facet normal 0 1 0
    outer loop
      vertex -4.29472 225.812 6.22622
      vertex -4.56579 225.812 6.19653
      vertex -54.3862 225.812 131.3
    endloop
  endfacet
  facet normal 0 1 0
    outer loop
      vertex -4.56579 225.812 6.19653
      vertex -4.8353 225.812 6.15505
      vertex -54.3862 225.812 131.3
    endloop
  endfacet
  facet normal 0 1 0
    outer loop
      vertex -54.3862 225.812 131.3
      vertex -4.8353 225.812 6.15505
      vertex -131.3 225.812 54.3862
    endloop
  endfacet
  facet normal 0 1 0
    outer loop
      vertex -4.8353 225.812 6.15505
      vertex -5.10275 225.812 6.10185
      vertex -131.3 225.812 54.3862
    endloop
  endfacet
  facet normal 0 1 0
    outer loop
      vertex -8.70846 225.812 3.80476
      vertex -8.8697 225.812 3.58485
      vertex -131.3 225.812 54.3862
    endloop
  endfacet
  facet normal 0 1 0
    outer loop
      vertex -8.8697 225.812 3.58485
      vertex -9.0212 225.812 3.35812
      vertex -131.3 225.812 54.3862
    endloop
  endfacet
  facet normal 0 1 0
    outer loop
      vertex -131.3 225.812 54.3862
      vertex -9.0212 225.812 3.35812
      vertex -9.16266 225.812 3.125
    endloop
  endfacet
  facet normal 0 1 0
    outer loop
      vertex -9.94653 225.812 -0.815789
      vertex -9.90505 225.812 -1.0853
      vertex -131.3 225.812 -54.3862
    endloop
  endfacet
  facet normal 0 1 0
    outer loop
      vertex -9.90505 225.812 -1.0853
      vertex -9.85185 225.812 -1.35275
      vertex -131.3 225.812 -54.3862
    endloop
  endfacet
  facet normal 0 1 0
    outer loop
      vertex -131.3 225.812 -54.3862
      vertex -9.85185 225.812 -1.35275
      vertex -9.78704 225.812 -1.61762
    endloop
  endfacet
  facet normal 0 1 0
    outer loop
      vertex -7.97244 225.812 -4.60798
      vertex -54.3862 225.812 -131.3
      vertex -8.16942 225.812 -4.41942
    endloop
  endfacet
  facet normal 0 1 0
    outer loop
      vertex -54.3862 225.812 -131.3
      vertex -8.35798 225.812 -4.22244
      vertex -8.16942 225.812 -4.41942
    endloop
  endfacet
  facet normal 0 1 0
    outer loop
      vertex -6.39136 225.812 -5.66442
      vertex -6.14177 225.812 -5.77425
      vertex -54.3862 225.812 -131.3
    endloop
  endfacet
  facet normal 0 1 0
    outer loop
      vertex -6.14177 225.812 -5.77425
      vertex -5.88763 225.812 -5.87308
      vertex -54.3862 225.812 -131.3
    endloop
  endfacet
  facet normal 0 1 0
    outer loop
      vertex -54.3862 225.812 -131.3
      vertex -5.88763 225.812 -5.87308
      vertex -5.62941 225.812 -5.96073
    endloop
  endfacet
  facet normal 0 1 0
    outer loop
      vertex -7.33485 225.812 5.1197
      vertex -7.55476 225.812 4.95846
      vertex -131.3 225.812 54.3862
    endloop
  endfacet
  facet normal 0 1 0
    outer loop
      vertex -7.55476 225.812 4.95846
      vertex -7.76742 225.812 4.78778
      vertex -131.3 225.812 54.3862
    endloop
  endfacet
  facet normal 0 1 0
    outer loop
      vertex -9.85185 225.812 1.35275
      vertex -9.90505 225.812 1.0853
      vertex -131.3 225.812 54.3862
    endloop
  endfacet
  facet normal 0 1 0
    outer loop
      vertex -9.90505 225.812 1.0853
      vertex -9.94653 225.812 0.815789
      vertex -131.3 225.812 54.3862
    endloop
  endfacet
  facet normal 0 1 0
    outer loop
      vertex -131.3 225.812 54.3862
      vertex -9.94653 225.812 0.815789
      vertex -9.97622 225.812 0.544723
    endloop
  endfacet
  facet normal 0 1 0
    outer loop
      vertex -9.97622 225.812 0.544723
      vertex -9.99405 225.812 0.272621
      vertex -131.3 225.812 54.3862
    endloop
  endfacet
  facet normal 0 1 0
    outer loop
      vertex -9.99405 225.812 0.272621
      vertex -10 225.812 3.36855e-15
      vertex -131.3 225.812 54.3862
    endloop
  endfacet
  facet normal 0 1 0
    outer loop
      vertex -131.3 225.812 54.3862
      vertex -10 225.812 3.36855e-15
      vertex -131.3 225.812 -54.3862
    endloop
  endfacet
  facet normal 0 1 0
    outer loop
      vertex -10 225.812 3.36855e-15
      vertex -9.99405 225.812 -0.272621
      vertex -131.3 225.812 -54.3862
    endloop
  endfacet
  facet normal 0 1 0
    outer loop
      vertex -131.3 225.812 -54.3862
      vertex -9.99405 225.812 -0.272621
      vertex -9.97622 225.812 -0.544723
    endloop
  endfacet
  facet normal 0 1 0
    outer loop
      vertex -9.0212 225.812 -3.35812
      vertex -8.8697 225.812 -3.58485
      vertex -131.3 225.812 -54.3862
    endloop
  endfacet
  facet normal 0 1 0
    outer loop
      vertex -8.8697 225.812 -3.58485
      vertex -8.70846 225.812 -3.80476
      vertex -131.3 225.812 -54.3862
    endloop
  endfacet
  facet normal 0 1 0
    outer loop
      vertex -131.3 225.812 -54.3862
      vertex -8.70846 225.812 -3.80476
      vertex -54.3862 225.812 -131.3
    endloop
  endfacet
  facet normal 0 1 0
    outer loop
      vertex -8.70846 225.812 -3.80476
      vertex -8.53778 225.812 -4.01742
      vertex -54.3862 225.812 -131.3
    endloop
  endfacet
  facet normal 0 1 0
    outer loop
      vertex -54.3862 225.812 -131.3
      vertex -8.53778 225.812 -4.01742
      vertex -8.35798 225.812 -4.22244
    endloop
  endfacet
  facet normal 0 1 0
    outer loop
      vertex -7.97244 225.812 -4.60798
      vertex -7.76742 225.812 -4.78778
      vertex -54.3862 225.812 -131.3
    endloop
  endfacet
  facet normal 0 1 0
    outer loop
      vertex -7.76742 225.812 -4.78778
      vertex -7.55476 225.812 -4.95846
      vertex -54.3862 225.812 -131.3
    endloop
  endfacet
  facet normal 0 1 0
    outer loop
      vertex -54.3862 225.812 -131.3
      vertex -7.55476 225.812 -4.95846
      vertex -7.33485 225.812 -5.1197
    endloop
  endfacet
  facet normal 0 1 0
    outer loop
      vertex -5.36762 225.812 -6.03704
      vertex -5.10275 225.812 -6.10185
      vertex -54.3862 225.812 -131.3
    endloop
  endfacet
  facet normal 0 1 0
    outer loop
      vertex -5.10275 225.812 -6.10185
      vertex -4.8353 225.812 -6.15505
      vertex -54.3862 225.812 -131.3
    endloop
  endfacet
  facet normal 0 1 0
    outer loop
      vertex -54.3862 225.812 -131.3
      vertex -4.8353 225.812 -6.15505
      vertex 31.925 225.812 -131.3
    endloop
  endfacet
  facet normal 0 1 0
    outer loop
      vertex -4.8353 225.812 -6.15505
      vertex -4.56579 225.812 -6.19653
      vertex 31.925 225.812 -131.3
    endloop
  endfacet
  facet normal 0 1 0
    outer loop
      vertex 31.925 225.812 -131.3
      vertex -4.56579 225.812 -6.19653
      vertex -4.29472 225.812 -6.22622
    endloop
  endfacet
  facet normal 0 1 0
    outer loop
      vertex -4.29472 225.812 -6.22622
      vertex -4.02262 225.812 -6.24405
      vertex 31.925 225.812 -131.3
    endloop
  endfacet
  facet normal 0 1 0
    outer loop
      vertex -4.02262 225.812 -6.24405
      vertex -3.75 225.812 -6.25
      vertex 31.925 225.812 -131.3
    endloop
  endfacet
  facet normal 0 1 0
    outer loop
      vertex 31.925 225.812 -131.3
      vertex -3.75 225.812 -6.25
      vertex 1.51966 225.812 -6.25
    endloop
  endfacet
  facet normal 0 1 0
    outer loop
      vertex -5.10275 225.812 6.10185
      vertex -5.36762 225.812 6.03704
      vertex -131.3 225.812 54.3862
    endloop
  endfacet
  facet normal 0 1 0
    outer loop
      vertex -5.36762 225.812 6.03704
      vertex -5.62941 225.812 5.96073
      vertex -131.3 225.812 54.3862
    endloop
  endfacet
  facet normal 0 1 0
    outer loop
      vertex -131.3 225.812 54.3862
      vertex -5.62941 225.812 5.96073
      vertex -5.88763 225.812 5.87308
    endloop
  endfacet
  facet normal 0 1 0
    outer loop
      vertex -7.76742 225.812 4.78778
      vertex -7.97244 225.812 4.60798
      vertex -131.3 225.812 54.3862
    endloop
  endfacet
  facet normal 0 1 0
    outer loop
      vertex -7.97244 225.812 4.60798
      vertex -8.16942 225.812 4.41942
      vertex -131.3 225.812 54.3862
    endloop
  endfacet
  facet normal 0 1 0
    outer loop
      vertex -131.3 225.812 54.3862
      vertex -8.16942 225.812 4.41942
      vertex -8.35798 225.812 4.22244
    endloop
  endfacet
  facet normal 0 1 0
    outer loop
      vertex -9.62308 225.812 2.13763
      vertex -9.71073 225.812 1.87941
      vertex -131.3 225.812 54.3862
    endloop
  endfacet
  facet normal 0 1 0
    outer loop
      vertex -9.71073 225.812 1.87941
      vertex -9.78704 225.812 1.61762
      vertex -131.3 225.812 54.3862
    endloop
  endfacet
  facet normal 0 1 0
    outer loop
      vertex -131.3 225.812 54.3862
      vertex -9.78704 225.812 1.61762
      vertex -9.85185 225.812 1.35275
    endloop
  endfacet
  facet normal 0 1 0
    outer loop
      vertex -5.88763 225.812 5.87308
      vertex -6.14177 225.812 5.77425
      vertex -131.3 225.812 54.3862
    endloop
  endfacet
  facet normal 0 1 0
    outer loop
      vertex -6.14177 225.812 5.77425
      vertex -6.39136 225.812 5.66442
      vertex -131.3 225.812 54.3862
    endloop
  endfacet
  facet normal 0 1 0
    outer loop
      vertex -131.3 225.812 54.3862
      vertex -6.39136 225.812 5.66442
      vertex -6.63593 225.812 5.54382
    endloop
  endfacet
  facet normal 0 1 0
    outer loop
      vertex -6.63593 225.812 5.54382
      vertex -6.875 225.812 5.41266
      vertex -131.3 225.812 54.3862
    endloop
  endfacet
  facet normal 0 1 0
    outer loop
      vertex -6.875 225.812 5.41266
      vertex -7.10812 225.812 5.2712
      vertex -131.3 225.812 54.3862
    endloop
  endfacet
  facet normal 0 1 0
    outer loop
      vertex -131.3 225.812 54.3862
      vertex -7.10812 225.812 5.2712
      vertex -7.33485 225.812 5.1197
    endloop
  endfacet
  facet normal 0 0 -1
    outer loop
      vertex 2.58883 215.65 6.25
      vertex -3.75 215.65 6.25
      vertex 2.58883 225.812 6.25
    endloop
  endfacet
  facet normal 0 0 -1
    outer loop
      vertex -3.75 215.65 6.25
      vertex -3.75 225.812 6.25
      vertex 2.58883 225.812 6.25
    endloop
  endfacet
  facet normal 0.971689 0 0.236262
    outer loop
      vertex 1.51966 215.65 -6.25
      vertex 31.925 215.65 -131.3
      vertex 1.51966 225.812 -6.25
    endloop
  endfacet
  facet normal 0.971689 0 0.236262
    outer loop
      vertex 31.925 215.65 -131.3
      vertex 31.925 225.812 -131.3
      vertex 1.51966 225.812 -6.25
    endloop
  endfacet
  facet normal 0.0218156 0 -0.999762
    outer loop
      vertex -3.75 225.812 6.25
      vertex -3.75 215.65 6.25
      vertex -4.02262 225.812 6.24405
    endloop
  endfacet
  facet normal 0.0218156 0 -0.999762
    outer loop
      vertex -3.75 215.65 6.25
      vertex -4.02262 215.65 6.24405
      vertex -4.02262 225.812 6.24405
    endloop
  endfacet
  facet normal 0.0654026 0 -0.997859
    outer loop
      vertex -4.02262 225.812 6.24405
      vertex -4.02262 215.65 6.24405
      vertex -4.29472 225.812 6.22622
    endloop
  endfacet
  facet normal 0.0654026 0 -0.997859
    outer loop
      vertex -4.02262 215.65 6.24405
      vertex -4.29472 215.65 6.22622
      vertex -4.29472 225.812 6.22622
    endloop
  endfacet
  facet normal 0.108866 0 -0.994056
    outer loop
      vertex -4.29472 225.812 6.22622
      vertex -4.29472 215.65 6.22622
      vertex -4.56579 225.812 6.19653
    endloop
  endfacet
  facet normal 0.108866 0 -0.994056
    outer loop
      vertex -4.29472 215.65 6.22622
      vertex -4.56579 215.65 6.19653
      vertex -4.56579 225.812 6.19653
    endloop
  endfacet
  facet normal 0.152124 0 -0.988361
    outer loop
      vertex -4.56579 225.812 6.19653
      vertex -4.56579 215.65 6.19653
      vertex -4.8353 225.812 6.15505
    endloop
  endfacet
  facet normal 0.152124 0 -0.988361
    outer loop
      vertex -4.56579 215.65 6.19653
      vertex -4.8353 215.65 6.15505
      vertex -4.8353 225.812 6.15505
    endloop
  endfacet
  facet normal 0.195091 0 -0.980785
    outer loop
      vertex -4.8353 225.812 6.15505
      vertex -4.8353 215.65 6.15505
      vertex -5.10275 225.812 6.10185
    endloop
  endfacet
  facet normal 0.195091 0 -0.980785
    outer loop
      vertex -4.8353 215.65 6.15505
      vertex -5.10275 215.65 6.10185
      vertex -5.10275 225.812 6.10185
    endloop
  endfacet
  facet normal 0.237686 0 -0.971342
    outer loop
      vertex -5.10275 225.812 6.10185
      vertex -5.10275 215.65 6.10185
      vertex -5.36762 225.812 6.03704
    endloop
  endfacet
  facet normal 0.237686 0 -0.971342
    outer loop
      vertex -5.10275 215.65 6.10185
      vertex -5.36762 215.65 6.03704
      vertex -5.36762 225.812 6.03704
    endloop
  endfacet
  facet normal 0.279829 0 -0.96005
    outer loop
      vertex -5.36762 225.812 6.03704
      vertex -5.36762 215.65 6.03704
      vertex -5.62941 225.812 5.96073
    endloop
  endfacet
  facet normal 0.279829 0 -0.96005
    outer loop
      vertex -5.36762 215.65 6.03704
      vertex -5.62941 215.65 5.96073
      vertex -5.62941 225.812 5.96073
    endloop
  endfacet
  facet normal 0.321439 0 -0.94693
    outer loop
      vertex -5.62941 225.812 5.96073
      vertex -5.62941 215.65 5.96073
      vertex -5.88763 225.812 5.87308
    endloop
  endfacet
  facet normal 0.321439 0 -0.94693
    outer loop
      vertex -5.62941 215.65 5.96073
      vertex -5.88763 215.65 5.87308
      vertex -5.88763 225.812 5.87308
    endloop
  endfacet
  facet normal 0.362438 0 -0.932008
    outer loop
      vertex -5.88763 225.812 5.87308
      vertex -5.88763 215.65 5.87308
      vertex -6.14177 225.812 5.77425
    endloop
  endfacet
  facet normal 0.362438 0 -0.932008
    outer loop
      vertex -5.88763 215.65 5.87308
      vertex -6.14177 215.65 5.77425
      vertex -6.14177 225.812 5.77425
    endloop
  endfacet
  facet normal 0.402747 0 -0.915311
    outer loop
      vertex -6.14177 225.812 5.77425
      vertex -6.14177 215.65 5.77425
      vertex -6.39136 225.812 5.66442
    endloop
  endfacet
  facet normal 0.402747 0 -0.915311
    outer loop
      vertex -6.14177 215.65 5.77425
      vertex -6.39136 215.65 5.66442
      vertex -6.39136 225.812 5.66442
    endloop
  endfacet
  facet normal 0.442288 0 -0.896873
    outer loop
      vertex -6.39136 225.812 5.66442
      vertex -6.39136 215.65 5.66442
      vertex -6.63593 225.812 5.54382
    endloop
  endfacet
  facet normal 0.442288 0 -0.896873
    outer loop
      vertex -6.39136 215.65 5.66442
      vertex -6.63593 215.65 5.54382
      vertex -6.63593 225.812 5.54382
    endloop
  endfacet
  facet normal 0.48099 0 -0.876726
    outer loop
      vertex -6.63593 225.812 5.54382
      vertex -6.63593 215.65 5.54382
      vertex -6.875 225.812 5.41266
    endloop
  endfacet
  facet normal 0.48099 0 -0.876726
    outer loop
      vertex -6.63593 215.65 5.54382
      vertex -6.875 215.65 5.41266
      vertex -6.875 225.812 5.41266
    endloop
  endfacet
  facet normal 0.518773 0 -0.854912
    outer loop
      vertex -6.875 225.812 5.41266
      vertex -6.875 215.65 5.41266
      vertex -7.10812 225.812 5.2712
    endloop
  endfacet
  facet normal 0.518773 0 -0.854912
    outer loop
      vertex -6.875 215.65 5.41266
      vertex -7.10812 215.65 5.2712
      vertex -7.10812 225.812 5.2712
    endloop
  endfacet
  facet normal 0.55557 0 -0.83147
    outer loop
      vertex -7.10812 225.812 5.2712
      vertex -7.10812 215.65 5.2712
      vertex -7.33485 225.812 5.1197
    endloop
  endfacet
  facet normal 0.55557 0 -0.83147
    outer loop
      vertex -7.10812 215.65 5.2712
      vertex -7.33485 215.65 5.1197
      vertex -7.33485 225.812 5.1197
    endloop
  endfacet
  facet normal 0.59131 0 -0.806444
    outer loop
      vertex -7.33485 225.812 5.1197
      vertex -7.33485 215.65 5.1197
      vertex -7.55476 225.812 4.95846
    endloop
  endfacet
  facet normal 0.59131 0 -0.806444
    outer loop
      vertex -7.33485 215.65 5.1197
      vertex -7.55476 215.65 4.95846
      vertex -7.55476 225.812 4.95846
    endloop
  endfacet
  facet normal 0.625923 0 -0.779885
    outer loop
      vertex -7.55476 225.812 4.95846
      vertex -7.55476 215.65 4.95846
      vertex -7.76742 225.812 4.78778
    endloop
  endfacet
  facet normal 0.625923 0 -0.779885
    outer loop
      vertex -7.55476 215.65 4.95846
      vertex -7.76742 215.65 4.78778
      vertex -7.76742 225.812 4.78778
    endloop
  endfacet
  facet normal 0.659345 0 -0.75184
    outer loop
      vertex -7.76742 225.812 4.78778
      vertex -7.76742 215.65 4.78778
      vertex -7.97244 225.812 4.60798
    endloop
  endfacet
  facet normal 0.659345 0 -0.75184
    outer loop
      vertex -7.76742 215.65 4.78778
      vertex -7.97244 215.65 4.60798
      vertex -7.97244 225.812 4.60798
    endloop
  endfacet
  facet normal 0.691513 0 -0.722364
    outer loop
      vertex -7.97244 225.812 4.60798
      vertex -7.97244 215.65 4.60798
      vertex -8.16942 225.812 4.41942
    endloop
  endfacet
  facet normal 0.691513 0 -0.722364
    outer loop
      vertex -7.97244 215.65 4.60798
      vertex -8.16942 215.65 4.41942
      vertex -8.16942 225.812 4.41942
    endloop
  endfacet
  facet normal 0.722365 0 -0.691512
    outer loop
      vertex -8.16942 225.812 4.41942
      vertex -8.16942 215.65 4.41942
      vertex -8.35798 225.812 4.22244
    endloop
  endfacet
  facet normal 0.722365 0 -0.691512
    outer loop
      vertex -8.16942 215.65 4.41942
      vertex -8.35798 215.65 4.22244
      vertex -8.35798 225.812 4.22244
    endloop
  endfacet
  facet normal 0.751839 0 -0.659346
    outer loop
      vertex -8.35798 225.812 4.22244
      vertex -8.35798 215.65 4.22244
      vertex -8.53778 225.812 4.01742
    endloop
  endfacet
  facet normal 0.751839 0 -0.659346
    outer loop
      vertex -8.35798 215.65 4.22244
      vertex -8.53778 215.65 4.01742
      vertex -8.53778 225.812 4.01742
    endloop
  endfacet
  facet normal 0.779884 0 -0.625924
    outer loop
      vertex -8.53778 225.812 4.01742
      vertex -8.53778 215.65 4.01742
      vertex -8.70846 225.812 3.80476
    endloop
  endfacet
  facet normal 0.779884 0 -0.625924
    outer loop
      vertex -8.53778 215.65 4.01742
      vertex -8.70846 215.65 3.80476
      vertex -8.70846 225.812 3.80476
    endloop
  endfacet
  facet normal 0.806445 0 -0.591309
    outer loop
      vertex -8.70846 225.812 3.80476
      vertex -8.70846 215.65 3.80476
      vertex -8.8697 225.812 3.58485
    endloop
  endfacet
  facet normal 0.806445 0 -0.591309
    outer loop
      vertex -8.70846 215.65 3.80476
      vertex -8.8697 215.65 3.58485
      vertex -8.8697 225.812 3.58485
    endloop
  endfacet
  facet normal 0.831469 0 -0.555571
    outer loop
      vertex -8.8697 225.812 3.58485
      vertex -8.8697 215.65 3.58485
      vertex -9.0212 225.812 3.35812
    endloop
  endfacet
  facet normal 0.831469 0 -0.555571
    outer loop
      vertex -8.8697 215.65 3.58485
      vertex -9.0212 215.65 3.35812
      vertex -9.0212 225.812 3.35812
    endloop
  endfacet
  facet normal 0.854912 0 -0.518773
    outer loop
      vertex -9.0212 225.812 3.35812
      vertex -9.0212 215.65 3.35812
      vertex -9.16266 225.812 3.125
    endloop
  endfacet
  facet normal 0.854912 0 -0.518773
    outer loop
      vertex -9.0212 215.65 3.35812
      vertex -9.16266 215.65 3.125
      vertex -9.16266 225.812 3.125
    endloop
  endfacet
  facet normal 0.876727 0 -0.480989
    outer loop
      vertex -9.16266 225.812 3.125
      vertex -9.16266 215.65 3.125
      vertex -9.29382 225.812 2.88593
    endloop
  endfacet
  facet normal 0.876727 0 -0.480989
    outer loop
      vertex -9.16266 215.65 3.125
      vertex -9.29382 215.65 2.88593
      vertex -9.29382 225.812 2.88593
    endloop
  endfacet
  facet normal 0.896874 0 -0.442287
    outer loop
      vertex -9.29382 225.812 2.88593
      vertex -9.29382 215.65 2.88593
      vertex -9.41442 225.812 2.64136
    endloop
  endfacet
  facet normal 0.896874 0 -0.442287
    outer loop
      vertex -9.29382 215.65 2.88593
      vertex -9.41442 215.65 2.64136
      vertex -9.41442 225.812 2.64136
    endloop
  endfacet
  facet normal 0.915312 0 -0.402747
    outer loop
      vertex -9.41442 225.812 2.64136
      vertex -9.41442 215.65 2.64136
      vertex -9.52425 225.812 2.39177
    endloop
  endfacet
  facet normal 0.915312 0 -0.402747
    outer loop
      vertex -9.41442 215.65 2.64136
      vertex -9.52425 215.65 2.39177
      vertex -9.52425 225.812 2.39177
    endloop
  endfacet
  facet normal 0.932008 0 -0.362438
    outer loop
      vertex -9.52425 225.812 2.39177
      vertex -9.52425 215.65 2.39177
      vertex -9.62308 225.812 2.13763
    endloop
  endfacet
  facet normal 0.932008 0 -0.362438
    outer loop
      vertex -9.52425 215.65 2.39177
      vertex -9.62308 215.65 2.13763
      vertex -9.62308 225.812 2.13763
    endloop
  endfacet
  facet normal 0.94693 0 -0.321441
    outer loop
      vertex -9.62308 225.812 2.13763
      vertex -9.62308 215.65 2.13763
      vertex -9.71073 225.812 1.87941
    endloop
  endfacet
  facet normal 0.94693 0 -0.321441
    outer loop
      vertex -9.62308 215.65 2.13763
      vertex -9.71073 215.65 1.87941
      vertex -9.71073 225.812 1.87941
    endloop
  endfacet
  facet normal 0.96005 0 -0.279828
    outer loop
      vertex -9.71073 225.812 1.87941
      vertex -9.71073 215.65 1.87941
      vertex -9.78704 225.812 1.61762
    endloop
  endfacet
  facet normal 0.96005 0 -0.279828
    outer loop
      vertex -9.71073 215.65 1.87941
      vertex -9.78704 215.65 1.61762
      vertex -9.78704 225.812 1.61762
    endloop
  endfacet
  facet normal 0.971342 0 -0.237685
    outer loop
      vertex -9.78704 225.812 1.61762
      vertex -9.78704 215.65 1.61762
      vertex -9.85185 225.812 1.35275
    endloop
  endfacet
  facet normal 0.971342 0 -0.237685
    outer loop
      vertex -9.78704 215.65 1.61762
      vertex -9.85185 215.65 1.35275
      vertex -9.85185 225.812 1.35275
    endloop
  endfacet
  facet normal 0.980785 0 -0.195092
    outer loop
      vertex -9.85185 225.812 1.35275
      vertex -9.85185 215.65 1.35275
      vertex -9.90505 225.812 1.0853
    endloop
  endfacet
  facet normal 0.980785 0 -0.195092
    outer loop
      vertex -9.85185 215.65 1.35275
      vertex -9.90505 215.65 1.0853
      vertex -9.90505 225.812 1.0853
    endloop
  endfacet
  facet normal 0.988361 0 -0.152124
    outer loop
      vertex -9.90505 225.812 1.0853
      vertex -9.90505 215.65 1.0853
      vertex -9.94653 225.812 0.815789
    endloop
  endfacet
  facet normal 0.988361 0 -0.152124
    outer loop
      vertex -9.90505 215.65 1.0853
      vertex -9.94653 215.65 0.815789
      vertex -9.94653 225.812 0.815789
    endloop
  endfacet
  facet normal 0.994057 0 -0.108865
    outer loop
      vertex -9.94653 225.812 0.815789
      vertex -9.94653 215.65 0.815789
      vertex -9.97622 225.812 0.544723
    endloop
  endfacet
  facet normal 0.994057 0 -0.108865
    outer loop
      vertex -9.94653 215.65 0.815789
      vertex -9.97622 215.65 0.544723
      vertex -9.97622 225.812 0.544723
    endloop
  endfacet
  facet normal 0.997859 0 -0.0654042
    outer loop
      vertex -9.97622 225.812 0.544723
      vertex -9.97622 215.65 0.544723
      vertex -9.99405 225.812 0.272621
    endloop
  endfacet
  facet normal 0.997859 0 -0.0654042
    outer loop
      vertex -9.97622 215.65 0.544723
      vertex -9.99405 215.65 0.272621
      vertex -9.99405 225.812 0.272621
    endloop
  endfacet
  facet normal 0.999762 0 -0.0218139
    outer loop
      vertex -9.99405 225.812 0.272621
      vertex -9.99405 215.65 0.272621
      vertex -10 225.812 3.36855e-15
    endloop
  endfacet
  facet normal 0.999762 0 -0.0218139
    outer loop
      vertex -9.99405 215.65 0.272621
      vertex -10 215.65 3.36855e-15
      vertex -10 225.812 3.36855e-15
    endloop
  endfacet
  facet normal 0.999762 0 0.0218139
    outer loop
      vertex -10 225.812 3.36855e-15
      vertex -10 215.65 3.36855e-15
      vertex -9.99405 225.812 -0.272621
    endloop
  endfacet
  facet normal 0.999762 0 0.0218139
    outer loop
      vertex -10 215.65 3.36855e-15
      vertex -9.99405 215.65 -0.272621
      vertex -9.99405 225.812 -0.272621
    endloop
  endfacet
  facet normal 0.997859 0 0.0654042
    outer loop
      vertex -9.99405 225.812 -0.272621
      vertex -9.99405 215.65 -0.272621
      vertex -9.97622 225.812 -0.544723
    endloop
  endfacet
  facet normal 0.997859 0 0.0654042
    outer loop
      vertex -9.99405 215.65 -0.272621
      vertex -9.97622 215.65 -0.544723
      vertex -9.97622 225.812 -0.544723
    endloop
  endfacet
  facet normal 0.994057 0 0.108865
    outer loop
      vertex -9.97622 225.812 -0.544723
      vertex -9.97622 215.65 -0.544723
      vertex -9.94653 225.812 -0.815789
    endloop
  endfacet
  facet normal 0.994057 0 0.108865
    outer loop
      vertex -9.97622 215.65 -0.544723
      vertex -9.94653 215.65 -0.815789
      vertex -9.94653 225.812 -0.815789
    endloop
  endfacet
  facet normal 0.988361 0 0.152124
    outer loop
      vertex -9.94653 225.812 -0.815789
      vertex -9.94653 215.65 -0.815789
      vertex -9.90505 225.812 -1.0853
    endloop
  endfacet
  facet normal 0.988361 0 0.152124
    outer loop
      vertex -9.94653 215.65 -0.815789
      vertex -9.90505 215.65 -1.0853
      vertex -9.90505 225.812 -1.0853
    endloop
  endfacet
  facet normal 0.980785 0 0.195092
    outer loop
      vertex -9.90505 225.812 -1.0853
      vertex -9.90505 215.65 -1.0853
      vertex -9.85185 225.812 -1.35275
    endloop
  endfacet
  facet normal 0.980785 0 0.195092
    outer loop
      vertex -9.90505 215.65 -1.0853
      vertex -9.85185 215.65 -1.35275
      vertex -9.85185 225.812 -1.35275
    endloop
  endfacet
  facet normal 0.971342 0 0.237685
    outer loop
      vertex -9.85185 225.812 -1.35275
      vertex -9.85185 215.65 -1.35275
      vertex -9.78704 225.812 -1.61762
    endloop
  endfacet
  facet normal 0.971342 0 0.237685
    outer loop
      vertex -9.85185 215.65 -1.35275
      vertex -9.78704 215.65 -1.61762
      vertex -9.78704 225.812 -1.61762
    endloop
  endfacet
  facet normal 0.96005 0 0.279828
    outer loop
      vertex -9.78704 225.812 -1.61762
      vertex -9.78704 215.65 -1.61762
      vertex -9.71073 225.812 -1.87941
    endloop
  endfacet
  facet normal 0.96005 0 0.279828
    outer loop
      vertex -9.78704 215.65 -1.61762
      vertex -9.71073 215.65 -1.87941
      vertex -9.71073 225.812 -1.87941
    endloop
  endfacet
  facet normal 0.94693 0 0.321441
    outer loop
      vertex -9.71073 225.812 -1.87941
      vertex -9.71073 215.65 -1.87941
      vertex -9.62308 225.812 -2.13763
    endloop
  endfacet
  facet normal 0.94693 0 0.321441
    outer loop
      vertex -9.71073 215.65 -1.87941
      vertex -9.62308 215.65 -2.13763
      vertex -9.62308 225.812 -2.13763
    endloop
  endfacet
  facet normal 0.932008 0 0.362438
    outer loop
      vertex -9.62308 225.812 -2.13763
      vertex -9.62308 215.65 -2.13763
      vertex -9.52425 225.812 -2.39177
    endloop
  endfacet
  facet normal 0.932008 0 0.362438
    outer loop
      vertex -9.62308 215.65 -2.13763
      vertex -9.52425 215.65 -2.39177
      vertex -9.52425 225.812 -2.39177
    endloop
  endfacet
  facet normal 0.915312 0 0.402747
    outer loop
      vertex -9.52425 225.812 -2.39177
      vertex -9.52425 215.65 -2.39177
      vertex -9.41442 225.812 -2.64136
    endloop
  endfacet
  facet normal 0.915312 0 0.402747
    outer loop
      vertex -9.52425 215.65 -2.39177
      vertex -9.41442 215.65 -2.64136
      vertex -9.41442 225.812 -2.64136
    endloop
  endfacet
  facet normal 0.896874 0 0.442287
    outer loop
      vertex -9.41442 225.812 -2.64136
      vertex -9.41442 215.65 -2.64136
      vertex -9.29382 225.812 -2.88593
    endloop
  endfacet
  facet normal 0.896874 0 0.442287
    outer loop
      vertex -9.41442 215.65 -2.64136
      vertex -9.29382 215.65 -2.88593
      vertex -9.29382 225.812 -2.88593
    endloop
  endfacet
  facet normal 0.876727 0 0.480989
    outer loop
      vertex -9.29382 225.812 -2.88593
      vertex -9.29382 215.65 -2.88593
      vertex -9.16266 225.812 -3.125
    endloop
  endfacet
  facet normal 0.876727 0 0.480989
    outer loop
      vertex -9.29382 215.65 -2.88593
      vertex -9.16266 215.65 -3.125
      vertex -9.16266 225.812 -3.125
    endloop
  endfacet
  facet normal 0.854912 0 0.518773
    outer loop
      vertex -9.16266 225.812 -3.125
      vertex -9.16266 215.65 -3.125
      vertex -9.0212 225.812 -3.35812
    endloop
  endfacet
  facet normal 0.854912 0 0.518773
    outer loop
      vertex -9.16266 215.65 -3.125
      vertex -9.0212 215.65 -3.35812
      vertex -9.0212 225.812 -3.35812
    endloop
  endfacet
  facet normal 0.831469 0 0.555571
    outer loop
      vertex -9.0212 225.812 -3.35812
      vertex -9.0212 215.65 -3.35812
      vertex -8.8697 225.812 -3.58485
    endloop
  endfacet
  facet normal 0.831469 0 0.555571
    outer loop
      vertex -9.0212 215.65 -3.35812
      vertex -8.8697 215.65 -3.58485
      vertex -8.8697 225.812 -3.58485
    endloop
  endfacet
  facet normal 0.806445 0 0.591309
    outer loop
      vertex -8.8697 225.812 -3.58485
      vertex -8.8697 215.65 -3.58485
      vertex -8.70846 225.812 -3.80476
    endloop
  endfacet
  facet normal 0.806445 0 0.591309
    outer loop
      vertex -8.8697 215.65 -3.58485
      vertex -8.70846 215.65 -3.80476
      vertex -8.70846 225.812 -3.80476
    endloop
  endfacet
  facet normal 0.779884 0 0.625924
    outer loop
      vertex -8.70846 225.812 -3.80476
      vertex -8.70846 215.65 -3.80476
      vertex -8.53778 225.812 -4.01742
    endloop
  endfacet
  facet normal 0.779884 0 0.625924
    outer loop
      vertex -8.70846 215.65 -3.80476
      vertex -8.53778 215.65 -4.01742
      vertex -8.53778 225.812 -4.01742
    endloop
  endfacet
  facet normal 0.751839 0 0.659346
    outer loop
      vertex -8.53778 225.812 -4.01742
      vertex -8.53778 215.65 -4.01742
      vertex -8.35798 225.812 -4.22244
    endloop
  endfacet
  facet normal 0.751839 0 0.659346
    outer loop
      vertex -8.53778 215.65 -4.01742
      vertex -8.35798 215.65 -4.22244
      vertex -8.35798 225.812 -4.22244
    endloop
  endfacet
  facet normal 0.722365 0 0.691512
    outer loop
      vertex -8.35798 225.812 -4.22244
      vertex -8.35798 215.65 -4.22244
      vertex -8.16942 225.812 -4.41942
    endloop
  endfacet
  facet normal 0.722365 0 0.691512
    outer loop
      vertex -8.35798 215.65 -4.22244
      vertex -8.16942 215.65 -4.41942
      vertex -8.16942 225.812 -4.41942
    endloop
  endfacet
  facet normal 0.691513 0 0.722364
    outer loop
      vertex -8.16942 225.812 -4.41942
      vertex -8.16942 215.65 -4.41942
      vertex -7.97244 225.812 -4.60798
    endloop
  endfacet
  facet normal 0.691513 0 0.722364
    outer loop
      vertex -8.16942 215.65 -4.41942
      vertex -7.97244 215.65 -4.60798
      vertex -7.97244 225.812 -4.60798
    endloop
  endfacet
  facet normal 0.659345 0 0.75184
    outer loop
      vertex -7.97244 225.812 -4.60798
      vertex -7.97244 215.65 -4.60798
      vertex -7.76742 225.812 -4.78778
    endloop
  endfacet
  facet normal 0.659345 0 0.75184
    outer loop
      vertex -7.97244 215.65 -4.60798
      vertex -7.76742 215.65 -4.78778
      vertex -7.76742 225.812 -4.78778
    endloop
  endfacet
  facet normal 0.625923 0 0.779885
    outer loop
      vertex -7.76742 225.812 -4.78778
      vertex -7.76742 215.65 -4.78778
      vertex -7.55476 225.812 -4.95846
    endloop
  endfacet
  facet normal 0.625923 0 0.779885
    outer loop
      vertex -7.76742 215.65 -4.78778
      vertex -7.55476 215.65 -4.95846
      vertex -7.55476 225.812 -4.95846
    endloop
  endfacet
  facet normal 0.59131 0 0.806444
    outer loop
      vertex -7.55476 225.812 -4.95846
      vertex -7.55476 215.65 -4.95846
      vertex -7.33485 225.812 -5.1197
    endloop
  endfacet
  facet normal 0.59131 0 0.806444
    outer loop
      vertex -7.55476 215.65 -4.95846
      vertex -7.33485 215.65 -5.1197
      vertex -7.33485 225.812 -5.1197
    endloop
  endfacet
  facet normal 0.55557 0 0.83147
    outer loop
      vertex -7.33485 225.812 -5.1197
      vertex -7.33485 215.65 -5.1197
      vertex -7.10812 225.812 -5.2712
    endloop
  endfacet
  facet normal 0.55557 0 0.83147
    outer loop
      vertex -7.33485 215.65 -5.1197
      vertex -7.10812 215.65 -5.2712
      vertex -7.10812 225.812 -5.2712
    endloop
  endfacet
  facet normal 0.518773 0 0.854912
    outer loop
      vertex -7.10812 225.812 -5.2712
      vertex -7.10812 215.65 -5.2712
      vertex -6.875 225.812 -5.41266
    endloop
  endfacet
  facet normal 0.518773 0 0.854912
    outer loop
      vertex -7.10812 215.65 -5.2712
      vertex -6.875 215.65 -5.41266
      vertex -6.875 225.812 -5.41266
    endloop
  endfacet
  facet normal 0.48099 0 0.876726
    outer loop
      vertex -6.875 225.812 -5.41266
      vertex -6.875 215.65 -5.41266
      vertex -6.63593 225.812 -5.54382
    endloop
  endfacet
  facet normal 0.48099 0 0.876726
    outer loop
      vertex -6.875 215.65 -5.41266
      vertex -6.63593 215.65 -5.54382
      vertex -6.63593 225.812 -5.54382
    endloop
  endfacet
  facet normal 0.442288 0 0.896873
    outer loop
      vertex -6.63593 225.812 -5.54382
      vertex -6.63593 215.65 -5.54382
      vertex -6.39136 225.812 -5.66442
    endloop
  endfacet
  facet normal 0.442288 0 0.896873
    outer loop
      vertex -6.63593 215.65 -5.54382
      vertex -6.39136 215.65 -5.66442
      vertex -6.39136 225.812 -5.66442
    endloop
  endfacet
  facet normal 0.402747 0 0.915311
    outer loop
      vertex -6.39136 225.812 -5.66442
      vertex -6.39136 215.65 -5.66442
      vertex -6.14177 225.812 -5.77425
    endloop
  endfacet
  facet normal 0.402747 0 0.915311
    outer loop
      vertex -6.39136 215.65 -5.66442
      vertex -6.14177 215.65 -5.77425
      vertex -6.14177 225.812 -5.77425
    endloop
  endfacet
  facet normal 0.362438 0 0.932008
    outer loop
      vertex -6.14177 225.812 -5.77425
      vertex -6.14177 215.65 -5.77425
      vertex -5.88763 225.812 -5.87308
    endloop
  endfacet
  facet normal 0.362438 0 0.932008
    outer loop
      vertex -6.14177 215.65 -5.77425
      vertex -5.88763 215.65 -5.87308
      vertex -5.88763 225.812 -5.87308
    endloop
  endfacet
  facet normal 0.321439 0 0.94693
    outer loop
      vertex -5.88763 225.812 -5.87308
      vertex -5.88763 215.65 -5.87308
      vertex -5.62941 225.812 -5.96073
    endloop
  endfacet
  facet normal 0.321439 0 0.94693
    outer loop
      vertex -5.88763 215.65 -5.87308
      vertex -5.62941 215.65 -5.96073
      vertex -5.62941 225.812 -5.96073
    endloop
  endfacet
  facet normal 0.279829 0 0.96005
    outer loop
      vertex -5.62941 225.812 -5.96073
      vertex -5.62941 215.65 -5.96073
      vertex -5.36762 225.812 -6.03704
    endloop
  endfacet
  facet normal 0.279829 0 0.96005
    outer loop
      vertex -5.62941 215.65 -5.96073
      vertex -5.36762 215.65 -6.03704
      vertex -5.36762 225.812 -6.03704
    endloop
  endfacet
  facet normal 0.237686 0 0.971342
    outer loop
      vertex -5.36762 225.812 -6.03704
      vertex -5.36762 215.65 -6.03704
      vertex -5.10275 225.812 -6.10185
    endloop
  endfacet
  facet normal 0.237686 0 0.971342
    outer loop
      vertex -5.36762 215.65 -6.03704
      vertex -5.10275 215.65 -6.10185
      vertex -5.10275 225.812 -6.10185
    endloop
  endfacet
  facet normal 0.195091 0 0.980785
    outer loop
      vertex -5.10275 225.812 -6.10185
      vertex -5.10275 215.65 -6.10185
      vertex -4.8353 225.812 -6.15505
    endloop
  endfacet
  facet normal 0.195091 0 0.980785
    outer loop
      vertex -5.10275 215.65 -6.10185
      vertex -4.8353 215.65 -6.15505
      vertex -4.8353 225.812 -6.15505
    endloop
  endfacet
  facet normal 0.152124 0 0.988361
    outer loop
      vertex -4.8353 225.812 -6.15505
      vertex -4.8353 215.65 -6.15505
      vertex -4.56579 225.812 -6.19653
    endloop
  endfacet
  facet normal 0.152124 0 0.988361
    outer loop
      vertex -4.8353 215.65 -6.15505
      vertex -4.56579 215.65 -6.19653
      vertex -4.56579 225.812 -6.19653
    endloop
  endfacet
  facet normal 0.108866 0 0.994056
    outer loop
      vertex -4.56579 225.812 -6.19653
      vertex -4.56579 215.65 -6.19653
      vertex -4.29472 225.812 -6.22622
    endloop
  endfacet
  facet normal 0.108866 0 0.994056
    outer loop
      vertex -4.56579 215.65 -6.19653
      vertex -4.29472 215.65 -6.22622
      vertex -4.29472 225.812 -6.22622
    endloop
  endfacet
  facet normal 0.0654026 0 0.997859
    outer loop
      vertex -4.29472 225.812 -6.22622
      vertex -4.29472 215.65 -6.22622
      vertex -4.02262 225.812 -6.24405
    endloop
  endfacet
  facet normal 0.0654026 0 0.997859
    outer loop
      vertex -4.29472 215.65 -6.22622
      vertex -4.02262 215.65 -6.24405
      vertex -4.02262 225.812 -6.24405
    endloop
  endfacet
  facet normal 0.0218156 0 0.999762
    outer loop
      vertex -4.02262 225.812 -6.24405
      vertex -4.02262 215.65 -6.24405
      vertex -3.75 225.812 -6.25
    endloop
  endfacet
  facet normal 0.0218156 0 0.999762
    outer loop
      vertex -4.02262 215.65 -6.24405
      vertex -3.75 215.65 -6.25
      vertex -3.75 225.812 -6.25
    endloop
  endfacet
endsolid Mesh
